<!DOCTYPE svg PUBLIC "-//W3C//DTD SVG 1.1//EN" "http://www.w3.org/Graphics/SVG/1.1/DTD/svg11.dtd">
<svg fill="#000" version="1.1" id="Layer_1" xmlns="http://www.w3.org/2000/svg" xmlns:xlink="http://www.w3.org/1999/xlink" x="0px" y="0px"
	 width="452.413px" height="452.413px" viewBox="194.738 11.906 452.413 452.413"
	 enable-background="new 194.738 11.906 452.413 452.413" xml:space="preserve">
<g>
	<path d="M420.945,11.906c-125.009,0-226.207,101.197-226.207,226.206s101.198,226.207,226.207,226.207
		s226.206-101.198,226.206-226.207S545.954,11.906,420.945,11.906z M420.945,444.476c-115.088,0-206.364-91.276-206.364-206.364
		S305.857,31.749,420.945,31.749s206.364,91.275,206.364,206.363S536.033,444.476,420.945,444.476z"/>
	<path d="M591.593,168.663c0-15.874-7.938-47.622-37.701-59.528c-5.953-1.984-11.906-1.984-15.874,0
		c-7.938,1.984-13.891,9.922-21.827,17.858c-1.984-1.984-3.969-3.969-5.953-5.952c-25.796-19.843-57.544-29.765-89.292-29.765
		c-79.371,0-146.836,65.481-146.836,146.836c0,81.355,65.48,146.836,146.836,146.836s146.836-65.48,146.836-146.836
		c0-15.874-1.984-31.748-7.938-45.638C591.593,182.552,591.593,172.632,591.593,168.663z M549.923,238.112
		c0,71.434-57.544,126.993-126.993,126.993s-128.978-55.56-128.978-126.993s57.544-126.993,126.993-126.993
		c27.779,0,55.56,9.922,77.387,25.796c1.984,1.984,5.952,3.968,7.937,5.952c-9.921,15.874-17.858,35.717-21.827,43.654
		l-19.842,13.89c-9.922-13.89-25.796-21.827-43.654-21.827c-31.748,0-59.528,25.796-59.528,59.528
		c0,31.748,25.796,59.528,59.528,59.528c31.748,0,59.528-25.796,59.528-59.528c0-7.937-1.984-15.874-3.969-21.827l17.858-13.89
		c19.843-1.984,35.717-3.969,47.622-7.938C545.954,210.333,549.923,224.222,549.923,238.112z M416.976,246.05
		c1.984,1.984,3.969,3.968,7.938,3.968c1.984,0,3.969,0,5.952-1.983l29.765-19.843c0,3.968,1.984,7.937,1.984,9.921
		c0,21.827-17.858,39.686-39.686,39.686s-39.686-17.858-39.686-39.686s17.858-39.686,39.686-39.686
		c11.905,0,21.827,5.953,29.764,13.89l-29.764,21.827C414.992,236.128,414.992,242.081,416.976,246.05z M506.268,182.552
		c11.906-23.812,27.78-51.591,37.701-55.56h1.984l0,0c19.843,7.938,25.796,29.765,25.796,41.67
		C567.781,172.632,540.001,178.584,506.268,182.552z"/>
</g>
</svg>
