<?xml version="1.0" encoding="utf-8"?>
<!-- Generator: Adobe Illustrator 16.0.0, SVG Export Plug-In . SVG Version: 6.00 Build 0)  -->
<!DOCTYPE svg PUBLIC "-//W3C//DTD SVG 1.1//EN" "http://www.w3.org/Graphics/SVG/1.1/DTD/svg11.dtd">
<svg fill="#000" version="1.1" id="Layer_1" xmlns="http://www.w3.org/2000/svg" xmlns:xlink="http://www.w3.org/1999/xlink" x="0px" y="0px"
	 width="371.455px" height="371.455px" viewBox="235.218 52.385 371.455 371.455"
	 enable-background="new 235.218 52.385 371.455 371.455" xml:space="preserve">
<g transform="translate(0,-952.36218)">
	<path d="M439.994,1004.747c-15.951,0-29.597,11.272-32.74,26.49c-0.247,1.194-0.146,0.827-0.298,1.637
		c-0.153,0.811-0.279,1.937-0.596,3.423c-0.631,2.974-1.699,7.277-3.125,12.501c-2.851,10.448-7.492,24.769-14.584,40.33
		c-13.962,30.637-37.577,65.689-75.452,87.061h-61.313c-4.433,0.031-8.257,3.115-9.228,7.44c-4.689,20.777-7.44,46.053-7.44,73.518
		s2.751,52.74,7.44,73.517c0.971,4.325,4.795,7.41,9.228,7.441h54.766c18.608,0,36.345,8.655,58.635,18.305
		c22.29,9.65,48.988,19.793,84.232,19.793h90.482c21.786,0,38.099-20.037,38.099-42.859c0-3.551-1.354-6.647-2.084-9.972
		c12.761-7.201,21.133-21.354,21.133-37.651c0-5.567-1.242-10.729-2.977-15.626c7.342-8.639,12.501-19.479,12.501-31.996
		c0-12.416-5.128-23.108-12.353-31.699c4.409-7.496,7.59-15.93,7.59-25.448c0-25.545-18.566-47.622-42.859-47.622H473.33v-95.245
		C473.33,1019.785,458.292,1004.747,439.994,1004.747z M439.994,1023.796c8.003,0,14.287,6.284,14.287,14.287v104.77
		c0,5.26,4.265,9.523,9.524,9.524h95.245c12.527,0,23.811,12.036,23.811,28.573c0,7.94-2.758,14.99-6.994,20.091
		c-3.417,4-2.944,10.013,1.056,13.43c0.044,0.038,0.09,0.075,0.135,0.113c6.095,4.994,10.566,13.506,10.566,23.514
		c0,9.85-4.208,18.358-10.12,23.364c-3.396,2.845-4.384,7.656-2.381,11.608c1.861,3.659,2.977,7.969,2.977,12.649
		c0,12.067-7.14,21.119-15.031,23.216c-5.104,1.276-8.206,6.448-6.93,11.552c0.133,0.529,0.31,1.046,0.53,1.545
		c1.463,3.331,2.382,7.153,2.382,11.311c0,13.998-9.274,23.811-19.05,23.811h-90.482c-31.627,0-54.932-8.905-76.643-18.305
		c-21.71-9.398-41.973-19.793-66.225-19.793h-46.729c-3.441-17.831-5.655-38.747-5.655-61.909c0-23.163,2.214-44.079,5.655-61.909
		h56.254c1.614,0,3.201-0.409,4.613-1.19c43.938-23.982,70.032-63.586,85.274-97.031c7.62-16.723,12.562-31.927,15.626-43.157
		c1.532-5.616,2.576-10.258,3.274-13.543c0.349-1.643,0.567-2.937,0.744-3.869c0.176-0.933,0.504-2.338,0.297-1.34
		C427.336,1028.667,432.963,1023.796,439.994,1023.796z"/>
</g>
</svg>
