<?xml version="1.0" encoding="utf-8"?>
<!-- Generator: Adobe Illustrator 16.0.0, SVG Export Plug-In . SVG Version: 6.00 Build 0)  -->
<!DOCTYPE svg PUBLIC "-//W3C//DTD SVG 1.1//EN" "http://www.w3.org/Graphics/SVG/1.1/DTD/svg11.dtd">
<svg  fill="#000" version="1.1" id="Layer_1" xmlns="http://www.w3.org/2000/svg" xmlns:xlink="http://www.w3.org/1999/xlink" x="0px" y="0px"
	 width="357.168px" height="428.602px" viewBox="242.361 23.811 357.168 428.602"
	 enable-background="new 242.361 23.811 357.168 428.602" xml:space="preserve">
<path d="M599.329,117.085c-0.614-3.648-3.057-7.015-6.381-8.677l-166.679-83.34c-3.353-1.676-7.296-1.676-10.648,0l-166.679,83.34
	c-3.919,1.957-6.581,6.267-6.581,10.648c0,144.687,46.984,227.226,86.401,270.981c43.432,48.227,87.011,61.361,88.849,61.895
	c1.086,0.324,2.21,0.48,3.334,0.48s2.248-0.156,3.338-0.48c1.834-0.533,45.418-13.668,88.85-61.895
	c39.412-43.756,86.396-126.295,86.396-270.981C599.463,118.399,599.396,117.742,599.329,117.085
	C598.715,113.431,599.396,117.742,599.329,117.085z M496.484,372.936c-32.384,36.431-65.186,51.013-75.539,54.961
	c-10.396-3.962-43.175-18.554-75.544-54.961c-50.646-56.976-77.891-142.158-79.11-246.58l154.654-77.329l154.654,77.329
	C574.38,230.778,547.135,315.961,496.484,372.936z"/>
<path d="M357.931,241.598c-4.647-4.653-12.19-4.653-16.834,0c-4.652,4.652-4.652,12.187,0,16.834l47.622,47.623
	c2.319,2.328,5.367,3.49,8.415,3.49s6.096-1.162,8.42-3.485l95.245-95.245c4.652-4.653,4.652-12.187,0-16.835
	c-4.648-4.652-12.191-4.652-16.834,0l-86.831,86.825L357.931,241.598z"/>
</svg>
