<?xml version="1.0" encoding="utf-8"?>
<!-- Generator: Adobe Illustrator 16.0.0, SVG Export Plug-In . SVG Version: 6.00 Build 0)  -->
<!DOCTYPE svg PUBLIC "-//W3C//DTD SVG 1.1//EN" "http://www.w3.org/Graphics/SVG/1.1/DTD/svg11.dtd">
<svg fill="#000" version="1.1" id="Layer_1" xmlns="http://www.w3.org/2000/svg" xmlns:xlink="http://www.w3.org/1999/xlink" x="0px" y="0px"
	 width="379.744px" height="425.428px" viewBox="229.641 24.136 379.744 425.428"
	 enable-background="new 229.641 24.136 379.744 425.428" xml:space="preserve">
<g>
	<g>
		<path d="M245.532,382.151c6.268,6.271,14.506,9.405,22.745,9.405c8.243,0,16.478-3.138,22.749-9.405l43.688-43.688l26.326,26.325
			c4.114,4.115,9.215,6.882,14.768,8.158l16.648,16.648c26.106,26.111,65.334,30.921,95.05,14.063l43.89,43.889
			c2.69,2.69,7.053,2.69,9.738,0c2.69-2.691,2.69-7.053,0-9.739l-41.993-41.993l4.3-4.301c2.69-2.69,2.69-7.048,0-9.738
			s-7.048-2.69-9.738,0c-24.697,24.692-65.743,23.84-91.507-1.924l-8.21-8.21c3.891-1.52,7.467-3.815,10.5-6.849
			c0,0,3.329-3.324,3.334-3.329c6.796-6.795,9.725-16.01,8.811-24.896c1.052,0.109,2.114,0.171,3.171,0.171
			c7.873,0,15.74-2.995,21.726-8.986l3.324-3.323c1.391-1.391,2.624-2.9,3.71-4.496c2.157,9.981,6.92,18.926,14.067,26.078
			c10.306,10.306,24.14,15.349,38.693,15.349c16.516,0,43.165-9.481,54.39-22.035c13.701,14.234,27.893,28.078,41.922,42.027
			c2.69,2.676,7.034,2.676,9.72-0.01l0.015-0.015c2.69-2.69,2.69-7.048,0-9.738l-43.903-43.903c1.71-3.033,3.215-6.195,4.505-9.481
			c0.129-0.333,0.162-0.681,0.238-1.023c4.086-8.958,6.091-18.474,5.738-28.303c-0.619-17.411-8.69-34.735-22.729-48.771
			l-59.076-59.07l18.211-18.211c27.487,6.629,56.661-3.644,73.844-27.44c14.791-20.482,16.658-47.637,6.571-70.8l-3.343-7.672
			l-38.912,38.912L525.39,72.71l38.912-38.917l-7.682-3.343c-23.153-10.087-50.289-8.22-70.771,6.558
			c-23.802,17.178-34.098,46.37-27.459,73.857l-18.292,18.292l-0.404-0.405c-5.339-5.338-12.282-9.033-19.802-9.677
			c-9.243-0.79-18.044,2.429-24.469,8.854l-3.328,3.328c-6.796,6.796-9.725,16.016-8.811,24.907
			c-1.048-0.105-2.109-0.167-3.177-0.167c-8.224,0-15.934,3.186-21.72,8.972l-3.324,3.319c-5.786,5.786-8.973,13.501-8.973,21.73
			c0,0.876,0.053,1.748,0.129,2.614c-0.866-0.071-1.733-0.129-2.609-0.129c-8.229,0-15.939,3.187-21.726,8.973l-3.324,3.319
			c-5.786,5.786-8.972,13.501-8.972,21.729c0,1.072,0.062,2.134,0.166,3.182c-1.047-0.104-2.109-0.167-3.181-0.167
			c-8.229,0-15.939,3.187-21.726,8.973l-2.481,2.48c-5.338,5.339-9.043,12.277-9.69,19.797c-0.801,9.253,2.424,18.068,8.853,24.497
			l1.224,1.224l-43.693,43.694c-12.563,12.563-12.558,32.931,0.01,45.488L245.532,382.151z M447.308,283.797
			c-0.767-0.977-1.571-1.924-2.462-2.814l-12.396-12.401c0.071-0.071,0.147-0.129,0.219-0.2l26.559-26.554l12.229,12.229
			c-0.614,0.571-1.237,1.138-1.818,1.719c-8.605,8.605-14.916,18.797-18.626,29.641C449.719,285.015,448.47,284.497,447.308,283.797
			z M541.468,249.842c11.567,11.567,18.211,25.602,18.702,39.521c0.509,14.43-5.387,28.227-17.059,39.898
			c-21.436,21.431-53.176,24.588-70.753,7.01c-8.349-8.348-12.32-20.187-11.172-33.326c1.19-13.591,7.644-26.883,18.187-37.426
			c2.924-2.92,6.258-5.582,10.501-8.372c1.729-1.139,2.857-2.991,3.066-5.053c0.21-2.063-0.514-4.105-1.98-5.567l-23.083-23.083
			c-1.343-1.343-3.109-2.019-4.871-2.019c-1.763,0-3.524,0.671-4.872,2.019l-35.207,35.208c-3.592,3.59-8.392,5.566-13.521,5.566
			s-9.93-1.977-13.521-5.566c-3.591-3.591-5.566-8.392-5.566-13.521s1.977-9.929,5.566-13.52l50.151-50.151
			c7.453-7.453,19.588-7.453,27.04,0L541.468,249.842z M473.883,114.86l-1.205-3.952c-6.129-20.12-0.72-41.836,14.12-56.676
			c10.891-10.886,25.249-16.63,39.931-16.63c4.268,0,8.567,0.486,12.815,1.477l-33.631,33.636l42.599,42.604l33.631-33.636
			c4.381,18.839-1.101,38.688-15.153,52.751c-14.839,14.844-36.556,20.254-56.676,14.12l-3.957-1.205l-23.979,23.979
			c-0.395-0.382-0.805-0.743-1.214-1.101l-31.321-31.321L473.883,114.86z M401.844,140.996l3.329-3.329
			c3.186-3.186,7.438-4.934,11.986-4.934c4.543,0,8.796,1.753,11.981,4.934l24.912,24.911c-6.506,1.096-12.744,4.12-17.749,9.13
			L422.45,185.56l-20.602-20.601C395.238,158.354,395.238,147.601,401.844,140.996z M364.812,178.027l3.324-3.324
			c3.186-3.186,7.438-4.934,11.981-4.934c4.548,0,8.801,1.752,11.986,4.934l20.602,20.602l-26.554,26.554
			c-0.071,0.072-0.129,0.148-0.2,0.22l-20.611-20.611c-0.914-0.914-1.891-1.738-2.896-2.52c-1.647-2.652-2.571-5.714-2.571-8.938
			C359.874,185.47,361.631,181.213,364.812,178.027z M328.309,214.534l3.324-3.323c3.187-3.187,7.438-4.935,11.986-4.935
			c4.549,0,8.801,1.753,11.987,4.935l22.863,22.868c-1.238,3.5-1.924,7.215-1.924,11.043c0,8.806,3.414,17.068,9.605,23.259
			c6.19,6.191,14.453,9.601,23.259,9.601c3.829,0,7.543-0.681,11.043-1.919l14.659,14.658c3.186,3.182,4.938,7.438,4.938,11.982
			c0,4.543-1.753,8.801-4.938,11.981l0,0l-3.324,3.324c-6.61,6.61-17.358,6.605-23.969,0l-79.511-79.501
			c-3.186-3.187-4.938-7.443-4.938-11.986C323.371,221.972,325.124,217.716,328.309,214.534z M291.274,251.57l3.323-3.324
			c3.187-3.186,7.439-4.934,11.987-4.934s8.8,1.753,11.986,4.934l79.51,79.511c6.605,6.605,6.605,17.358,0,23.969l-3.328,3.324
			c-6.367,6.362-17.602,6.371-23.969,0l-79.51-79.511c-3.187-3.187-4.938-7.443-4.938-11.986
			C286.336,259.009,288.088,254.752,291.274,251.57z M248.808,339.929l43.689-43.689l32.479,32.479l-43.689,43.689
			c-7.181,7.172-18.849,7.167-26.011,0l-6.468-6.463C241.641,358.773,241.641,347.106,248.808,339.929z"/>
	</g>
</g>
</svg>
