<?xml version="1.0" encoding="UTF-8" standalone="no"?>
<!-- Generator: Adobe Illustrator 16.0.0, SVG Export Plug-In . SVG Version: 6.00 Build 0)  -->

<svg
   xmlns:dc="http://purl.org/dc/elements/1.1/"
   xmlns:cc="http://creativecommons.org/ns#"
   xmlns:rdf="http://www.w3.org/1999/02/22-rdf-syntax-ns#"
   xmlns:svg="http://www.w3.org/2000/svg"
   xmlns="http://www.w3.org/2000/svg"
   xmlns:sodipodi="http://sodipodi.sourceforge.net/DTD/sodipodi-0.dtd"
   xmlns:inkscape="http://www.inkscape.org/namespaces/inkscape"
   version="1.1"
   id="Layer_1"
   x="0px"
   y="0px"
   width="243.827px"
   height="323.833px"
   viewBox="299.508 76.196 243.827 323.833"
   enable-background="new 299.508 76.196 243.827 323.833"
   xml:space="preserve"
   inkscape:version="0.91 r13725"
   sodipodi:docname="geolocation.svg"><metadata
     id="metadata13"><rdf:RDF><cc:Work
         rdf:about=""><dc:format>image/svg+xml</dc:format><dc:type
           rdf:resource="http://purl.org/dc/dcmitype/StillImage" /><dc:title></dc:title></cc:Work></rdf:RDF></metadata><defs
     id="defs11" /><sodipodi:namedview
     pagecolor="#ffffff"
     bordercolor="#666666"
     borderopacity="1"
     objecttolerance="10"
     gridtolerance="10"
     guidetolerance="10"
     inkscape:pageopacity="0"
     inkscape:pageshadow="2"
     inkscape:window-width="1920"
     inkscape:window-height="1017"
     id="namedview9"
     showgrid="false"
     inkscape:zoom="0.72877068"
     inkscape:cx="124.65785"
     inkscape:cy="161.9165"
     inkscape:window-x="0"
     inkscape:window-y="0"
     inkscape:window-maximized="1"
     inkscape:current-layer="Layer_1" /><g
     id="g3"
     style="fill:#59a7e0;fill-opacity:1"><path
       d="M420.945,76.196c-67.147,0-121.438,54.766-121.438,121.438c0,43.336,19.525,90.482,58.1,139.533   c28.097,36.193,56.194,59.528,57.623,60.48c1.905,1.429,3.81,2.382,6.191,2.382c2.381,0,4.286-0.953,6.19-2.382   c0.952-0.952,29.05-24.287,57.623-60.48c38.574-49.051,58.1-96.197,58.1-139.533C542.383,130.962,488.093,76.196,420.945,76.196z    M420.945,377.646c-22.859-20.478-102.389-99.055-102.389-180.013c0-56.195,45.718-102.389,102.389-102.389   s102.389,46.193,102.389,102.389C523.334,278.592,443.803,356.692,420.945,377.646z"
       id="path5"
       style="fill:#59a7e0;fill-opacity:1" /><path
       d="M420.945,128.104c-35.717,0-64.767,29.05-64.767,64.767s29.05,64.29,64.767,64.29s64.767-29.05,64.767-64.767   S456.662,128.104,420.945,128.104z M420.945,238.112c-25.24,0-45.718-20.478-45.718-45.718c0-25.239,20.478-45.717,45.718-45.717   s45.718,20.478,45.718,45.717C466.663,217.635,446.185,238.112,420.945,238.112z"
       id="path7"
       style="fill:#59a7e0;fill-opacity:1" /></g></svg>