<?xml version="1.0" encoding="UTF-8" standalone="no"?>
<!-- Generator: Adobe Illustrator 16.0.0, SVG Export Plug-In . SVG Version: 6.00 Build 0)  -->

<svg
   xmlns:dc="http://purl.org/dc/elements/1.1/"
   xmlns:cc="http://creativecommons.org/ns#"
   xmlns:rdf="http://www.w3.org/1999/02/22-rdf-syntax-ns#"
   xmlns:svg="http://www.w3.org/2000/svg"
   xmlns="http://www.w3.org/2000/svg"
   xmlns:sodipodi="http://sodipodi.sourceforge.net/DTD/sodipodi-0.dtd"
   xmlns:inkscape="http://www.inkscape.org/namespaces/inkscape"
   version="1.1"
   id="Layer_1"
   x="0px"
   y="0px"
   width="424.974px"
   height="426.717px"
   viewBox="211.51 25.182 424.974 426.717"
   enable-background="new 211.51 25.182 424.974 426.717"
   xml:space="preserve"
   inkscape:version="0.91 r13725"
   sodipodi:docname="instagram.svg"><metadata
     id="metadata9"><rdf:RDF><cc:Work
         rdf:about=""><dc:format>image/svg+xml</dc:format><dc:type
           rdf:resource="http://purl.org/dc/dcmitype/StillImage" /><dc:title></dc:title></cc:Work></rdf:RDF></metadata><defs
     id="defs7" /><sodipodi:namedview
     pagecolor="#ffffff"
     bordercolor="#666666"
     borderopacity="1"
     objecttolerance="10"
     gridtolerance="10"
     guidetolerance="10"
     inkscape:pageopacity="0"
     inkscape:pageshadow="2"
     inkscape:window-width="1920"
     inkscape:window-height="1017"
     id="namedview5"
     showgrid="false"
     inkscape:zoom="0.55305974"
     inkscape:cx="216.10325"
     inkscape:cy="209.74226"
     inkscape:window-x="0"
     inkscape:window-y="0"
     inkscape:window-maximized="1"
     inkscape:current-layer="Layer_1" /><path
     d="M530.277,25.182H317.719c-58.562,0-106.208,47.646-106.208,106.208v214.301c0,58.557,47.646,106.208,106.208,106.208  h212.559c58.561,0,106.207-47.651,106.207-106.208V131.39C636.484,72.829,588.838,25.182,530.277,25.182z M317.719,64.519h212.559  c36.873,0,66.871,29.997,66.871,66.871v36.555H484.55c-16.496-11.748-36.631-18.687-58.38-18.687  c-21.75,0-41.89,6.938-58.386,18.687H250.843V131.39C250.843,94.516,280.844,64.519,317.719,64.519z M468.049,250.136  c0,23.098-18.782,41.884-41.875,41.884c-23.097,0-41.879-18.786-41.879-41.884c0-23.087,18.787-41.874,41.879-41.874  C449.261,208.262,468.049,227.054,468.049,250.136z M530.277,412.567H317.719c-36.874,0-66.871-30.007-66.871-66.871V207.281h84.029  c-6.134,13.021-9.586,27.54-9.586,42.855c0,55.638,45.255,100.889,100.888,100.889c55.628,0,100.884-45.251,100.884-100.889  c0-15.315-3.453-29.835-9.587-42.855h79.673v138.41C597.148,382.56,567.15,412.567,530.277,412.567z"
     id="path3"
     style="fill:#ffffff;fill-opacity:1" /></svg>