<?xml version="1.0" encoding="UTF-8" standalone="no"?>
<!-- Generator: Adobe Illustrator 16.0.0, SVG Export Plug-In . SVG Version: 6.00 Build 0)  -->

<svg
   xmlns:dc="http://purl.org/dc/elements/1.1/"
   xmlns:cc="http://creativecommons.org/ns#"
   xmlns:rdf="http://www.w3.org/1999/02/22-rdf-syntax-ns#"
   xmlns:svg="http://www.w3.org/2000/svg"
   xmlns="http://www.w3.org/2000/svg"
   xmlns:sodipodi="http://sodipodi.sourceforge.net/DTD/sodipodi-0.dtd"
   xmlns:inkscape="http://www.inkscape.org/namespaces/inkscape"
   version="1.1"
   id="Layer_1"
   x="0px"
   y="0px"
   width="325.287px"
   height="331.191px"
   viewBox="258.302 72.516 325.287 331.191"
   enable-background="new 258.302 72.516 325.287 331.191"
   xml:space="preserve"
   inkscape:version="0.91 r13725"
   sodipodi:docname="look.svg"><metadata
     id="metadata9"><rdf:RDF><cc:Work
         rdf:about=""><dc:format>image/svg+xml</dc:format><dc:type
           rdf:resource="http://purl.org/dc/dcmitype/StillImage" /><dc:title></dc:title></cc:Work></rdf:RDF></metadata><defs
     id="defs7" /><sodipodi:namedview
     pagecolor="#ffffff"
     bordercolor="#666666"
     borderopacity="1"
     objecttolerance="10"
     gridtolerance="10"
     guidetolerance="10"
     inkscape:pageopacity="0"
     inkscape:pageshadow="2"
     inkscape:window-width="1920"
     inkscape:window-height="1017"
     id="namedview5"
     showgrid="false"
     inkscape:zoom="0.71257973"
     inkscape:cx="165.4502"
     inkscape:cy="165.5955"
     inkscape:window-x="0"
     inkscape:window-y="0"
     inkscape:window-maximized="1"
     inkscape:current-layer="Layer_1" /><path
     d="M578.276,374.549l-105.099-98.81c25.583-29.361,36.854-70.378,26.532-110.891c-13.851-54.363-62.665-92.332-118.703-92.332  c-10.182,0-20.394,1.284-30.345,3.819c-31.729,8.085-58.407,28.041-75.125,56.192s-21.477,61.131-13.388,92.858  c13.851,54.367,62.665,92.337,118.707,92.337c10.182,0,20.394-1.284,30.345-3.819c13.292-3.39,25.502-8.873,36.413-15.965  c0.239,0.254,0.471,0.516,0.729,0.759l106.824,100.433c3.257,3.062,7.408,4.577,11.552,4.577c4.489,0,8.972-1.784,12.295-5.313  C585.389,391.605,585.062,380.933,578.276,374.549z M403.977,285.568c-7.592,1.937-15.375,2.915-23.125,2.915  c-42.661,0-79.824-28.917-90.375-70.319c-6.156-24.159-2.539-49.271,10.193-70.706c12.729-21.436,33.046-36.634,57.208-42.79  c7.592-1.936,15.371-2.914,23.125-2.914c42.657,0,79.824,28.916,90.375,70.315C484.085,221.943,453.851,272.858,403.977,285.568z"
     id="path3"
     style="fill:#ffffff;fill-opacity:1" /></svg>