<?xml version="1.0" encoding="UTF-8" standalone="no"?>
<!-- Generator: Adobe Illustrator 16.0.0, SVG Export Plug-In . SVG Version: 6.00 Build 0)  -->

<svg
   xmlns:dc="http://purl.org/dc/elements/1.1/"
   xmlns:cc="http://creativecommons.org/ns#"
   xmlns:rdf="http://www.w3.org/1999/02/22-rdf-syntax-ns#"
   xmlns:svg="http://www.w3.org/2000/svg"
   xmlns="http://www.w3.org/2000/svg"
   xmlns:sodipodi="http://sodipodi.sourceforge.net/DTD/sodipodi-0.dtd"
   xmlns:inkscape="http://www.inkscape.org/namespaces/inkscape"
   version="1.1"
   id="Layer_1"
   x="0px"
   y="0px"
   width="419.078px"
   height="266.686px"
   viewBox="211.406 104.769 419.078 266.686"
   enable-background="new 211.406 104.769 419.078 266.686"
   xml:space="preserve"
   inkscape:version="0.91 r13725"
   sodipodi:docname="mail.svg"><metadata
     id="metadata11"><rdf:RDF><cc:Work
         rdf:about=""><dc:format>image/svg+xml</dc:format><dc:type
           rdf:resource="http://purl.org/dc/dcmitype/StillImage" /><dc:title></dc:title></cc:Work></rdf:RDF></metadata><defs
     id="defs9" /><sodipodi:namedview
     pagecolor="#ffffff"
     bordercolor="#666666"
     borderopacity="1"
     objecttolerance="10"
     gridtolerance="10"
     guidetolerance="10"
     inkscape:pageopacity="0"
     inkscape:pageshadow="2"
     inkscape:window-width="1920"
     inkscape:window-height="1017"
     id="namedview7"
     showgrid="false"
     inkscape:zoom="0.88493583"
     inkscape:cx="211.79905"
     inkscape:cy="133.343"
     inkscape:window-x="0"
     inkscape:window-y="0"
     inkscape:window-maximized="1"
     inkscape:current-layer="Layer_1" /><g
     transform="translate(0,-952.36218)"
     id="g3"
     style="fill:#59a7e0;fill-opacity:1"><path
       d="M220.93,1057.131c-5.26,0.001-9.523,4.265-9.524,9.524v247.637c0.001,5.261,4.265,9.524,9.524,9.524h400.028   c5.261,0,9.524-4.264,9.525-9.524v-247.637c-0.001-5.26-4.265-9.523-9.525-9.524H220.93z M245.635,1076.18h350.621   l-175.311,144.653L245.635,1076.18z M230.455,1088.533l120.991,99.858l-120.991,104.323V1088.533z M611.434,1088.533v204.182   l-98.519-85.721c-1.916-1.703-4.438-2.562-6.994-2.382c-5.251,0.332-9.238,4.857-8.906,10.107c0.165,2.608,1.394,5.034,3.399,6.71   l95.841,83.339H245.784l120.692-104.025l48.367,39.884c3.533,2.948,8.67,2.948,12.203,0L611.434,1088.533z"
       id="path5"
       style="fill:#59a7e0;fill-opacity:1" /></g></svg>