<?xml version="1.0" encoding="UTF-8" standalone="no"?>
<!-- Generator: Adobe Illustrator 16.0.0, SVG Export Plug-In . SVG Version: 6.00 Build 0)  -->

<svg
   xmlns:dc="http://purl.org/dc/elements/1.1/"
   xmlns:cc="http://creativecommons.org/ns#"
   xmlns:rdf="http://www.w3.org/1999/02/22-rdf-syntax-ns#"
   xmlns:svg="http://www.w3.org/2000/svg"
   xmlns="http://www.w3.org/2000/svg"
   xmlns:sodipodi="http://sodipodi.sourceforge.net/DTD/sodipodi-0.dtd"
   xmlns:inkscape="http://www.inkscape.org/namespaces/inkscape"
   version="1.1"
   id="Layer_1"
   x="0px"
   y="0px"
   width="344.327px"
   height="343.398px"
   viewBox="239.839 141.782 344.327 343.398"
   enable-background="new 239.839 141.782 344.327 343.398"
   xml:space="preserve"
   inkscape:version="0.91 r13725"
   sodipodi:docname="phone2.svg"><metadata
     id="metadata9"><rdf:RDF><cc:Work
         rdf:about=""><dc:format>image/svg+xml</dc:format><dc:type
           rdf:resource="http://purl.org/dc/dcmitype/StillImage" /><dc:title></dc:title></cc:Work></rdf:RDF></metadata><defs
     id="defs7" /><sodipodi:namedview
     pagecolor="#ffffff"
     bordercolor="#666666"
     borderopacity="1"
     objecttolerance="10"
     gridtolerance="10"
     guidetolerance="10"
     inkscape:pageopacity="0"
     inkscape:pageshadow="2"
     inkscape:window-width="1160"
     inkscape:window-height="674"
     id="namedview5"
     showgrid="false"
     inkscape:zoom="0.68724918"
     inkscape:cx="172.1635"
     inkscape:cy="171.69901"
     inkscape:window-x="0"
     inkscape:window-y="0"
     inkscape:window-maximized="0"
     inkscape:current-layer="Layer_1" /><path
     d="M294.128,142.094c-2.382-0.476-5.239-0.476-7.144,0.477c-25.716,10.001-41.908,46.67-45.718,71.91  c-11.905,81.91,52.861,152.868,112.389,199.538c52.861,41.431,154.297,109.531,214.301,43.813  c7.62-8.096,16.668-20.002,16.192-31.907c-1.429-20.002-20.002-34.288-34.288-45.241c-10.953-8.096-33.813-30.479-48.099-30.002  c-12.858,0.476-20.954,13.811-29.05,21.906l-14.287,14.286c-2.381,2.382-32.859-17.62-36.193-20.001  c-12.382-8.096-24.287-17.145-34.764-27.145c-10.478-10.001-20.002-20.954-28.098-32.384c-2.381-3.333-21.906-32.383-20.001-34.764  c0,0,16.667-18.097,21.43-25.24c10.001-15.239,17.62-27.145,6.191-45.241c-4.286-6.667-9.525-11.905-15.239-17.62  c-10.001-9.524-20.002-19.525-31.432-27.621C314.129,152.095,303.652,143.523,294.128,142.094z"
     id="path3"
     style="fill:#b7b7b7;fill-opacity:1" /></svg>