<?xml version="1.0" encoding="UTF-8" standalone="no"?>
<!-- Generator: Adobe Illustrator 16.0.0, SVG Export Plug-In . SVG Version: 6.00 Build 0)  -->

<svg
   xmlns:dc="http://purl.org/dc/elements/1.1/"
   xmlns:cc="http://creativecommons.org/ns#"
   xmlns:rdf="http://www.w3.org/1999/02/22-rdf-syntax-ns#"
   xmlns:svg="http://www.w3.org/2000/svg"
   xmlns="http://www.w3.org/2000/svg"
   xmlns:sodipodi="http://sodipodi.sourceforge.net/DTD/sodipodi-0.dtd"
   xmlns:inkscape="http://www.inkscape.org/namespaces/inkscape"
   version="1.1"
   id="Layer_1"
   x="0px"
   y="0px"
   width="93.066px"
   height="93.066px"
   viewBox="86.697 14.695 93.066 93.066"
   enable-background="new 86.697 14.695 93.066 93.066"
   xml:space="preserve"
   inkscape:version="0.91 r13725"
   sodipodi:docname="time2.svg"><metadata
     id="metadata29"><rdf:RDF><cc:Work
         rdf:about=""><dc:format>image/svg+xml</dc:format><dc:type
           rdf:resource="http://purl.org/dc/dcmitype/StillImage" /><dc:title></dc:title></cc:Work></rdf:RDF></metadata><defs
     id="defs27" /><sodipodi:namedview
     pagecolor="#ffffff"
     bordercolor="#666666"
     borderopacity="1"
     objecttolerance="10"
     gridtolerance="10"
     guidetolerance="10"
     inkscape:pageopacity="0"
     inkscape:pageshadow="2"
     inkscape:window-width="1920"
     inkscape:window-height="1017"
     id="namedview25"
     showgrid="false"
     inkscape:zoom="2.5358347"
     inkscape:cx="48.110391"
     inkscape:cy="46.533001"
     inkscape:window-x="0"
     inkscape:window-y="0"
     inkscape:window-maximized="1"
     inkscape:current-layer="Layer_1" /><g
     transform="translate(0,-952.36218)"
     id="g21"
     style="fill:#b7b7b7;fill-opacity:1"><path
       d="M133.23,967.057c-25.656,0-46.533,20.877-46.533,46.533c0,25.655,20.877,46.533,46.533,46.533   c25.656,0,46.533-20.878,46.533-46.533C179.763,987.934,158.886,967.057,133.23,967.057z M133.23,974.404   c21.686,0,39.186,17.501,39.186,39.187c0,21.685-17.5,39.186-39.186,39.186c-21.685,0-39.186-17.501-39.186-39.186   C94.044,991.905,111.545,974.404,133.23,974.404z M133.23,980.527c-2.029,0-3.674,1.645-3.674,3.674v29.39   c0,1.358,0.741,2.54,1.837,3.176l23.343,13.47c1.758,1.015,3.999,0.418,5.014-1.339s0.418-3.998-1.34-5.013l-21.506-12.398v-27.285   C136.904,982.172,135.259,980.527,133.23,980.527z"
       id="path23"
       style="fill:#b7b7b7;fill-opacity:1" /></g></svg>