<?xml version="1.0" encoding="UTF-8" standalone="no"?>
<!-- Generator: Adobe Illustrator 16.0.0, SVG Export Plug-In . SVG Version: 6.00 Build 0)  -->

<svg
   xmlns:dc="http://purl.org/dc/elements/1.1/"
   xmlns:cc="http://creativecommons.org/ns#"
   xmlns:rdf="http://www.w3.org/1999/02/22-rdf-syntax-ns#"
   xmlns:svg="http://www.w3.org/2000/svg"
   xmlns="http://www.w3.org/2000/svg"
   xmlns:sodipodi="http://sodipodi.sourceforge.net/DTD/sodipodi-0.dtd"
   xmlns:inkscape="http://www.inkscape.org/namespaces/inkscape"
   version="1.1"
   id="Layer_1"
   x="0px"
   y="0px"
   width="423.84px"
   height="423.84px"
   viewBox="209.025 26.192 423.84 423.84"
   enable-background="new 209.025 26.192 423.84 423.84"
   xml:space="preserve"
   inkscape:version="0.91 r13725"
   sodipodi:docname="time.svg"><metadata
     id="metadata46"><rdf:RDF><cc:Work
         rdf:about=""><dc:format>image/svg+xml</dc:format><dc:type
           rdf:resource="http://purl.org/dc/dcmitype/StillImage" /><dc:title></dc:title></cc:Work></rdf:RDF></metadata><defs
     id="defs44" /><sodipodi:namedview
     pagecolor="#ffffff"
     bordercolor="#666666"
     borderopacity="1"
     objecttolerance="10"
     gridtolerance="10"
     guidetolerance="10"
     inkscape:pageopacity="0"
     inkscape:pageshadow="2"
     inkscape:window-width="1920"
     inkscape:window-height="1017"
     id="namedview42"
     showgrid="false"
     inkscape:zoom="0.5568139"
     inkscape:cx="215.51186"
     inkscape:cy="211.92"
     inkscape:window-x="0"
     inkscape:window-y="0"
     inkscape:window-maximized="1"
     inkscape:current-layer="Layer_1" /><path
     d="M420.945,26.192c-116.852,0-211.92,95.064-211.92,211.92c0,116.856,95.068,211.92,211.92,211.92  s211.92-95.063,211.92-211.92C632.865,121.257,537.797,26.192,420.945,26.192z M420.945,426.22  c-103.722,0-188.108-84.387-188.108-188.108S317.223,50.004,420.945,50.004s188.108,84.387,188.108,188.108  S524.667,426.22,420.945,426.22z M420.945,77.782c-6.577,0-11.906,5.329-11.906,11.905v136.52H304.27  c-6.577,0-11.906,5.329-11.906,11.905c0,6.577,5.329,11.905,11.906,11.905h116.675c6.576,0,11.905-5.328,11.905-11.905V89.687  C432.85,83.115,427.521,77.782,420.945,77.782z"
     id="path40"
     style="fill:#59a7e0;fill-opacity:1" /></svg>