<?xml version="1.0" encoding="UTF-8" standalone="no"?>
<!-- Generator: Adobe Illustrator 16.0.0, SVG Export Plug-In . SVG Version: 6.00 Build 0)  -->

<svg
   xmlns:dc="http://purl.org/dc/elements/1.1/"
   xmlns:cc="http://creativecommons.org/ns#"
   xmlns:rdf="http://www.w3.org/1999/02/22-rdf-syntax-ns#"
   xmlns:svg="http://www.w3.org/2000/svg"
   xmlns="http://www.w3.org/2000/svg"
   xmlns:sodipodi="http://sodipodi.sourceforge.net/DTD/sodipodi-0.dtd"
   xmlns:inkscape="http://www.inkscape.org/namespaces/inkscape"
   version="1.1"
   id="Capa_1"
   x="0px"
   y="0px"
   width="548.36023"
   height="312.86276"
   viewBox="0 0 548.36023 312.86277"
   enable-background="new 0 0 548.357 548.357"
   xml:space="preserve"
   inkscape:version="0.91 r13725"
   sodipodi:docname="vk.svg"><metadata
     id="metadata11"><rdf:RDF><cc:Work
         rdf:about=""><dc:format>image/svg+xml</dc:format><dc:type
           rdf:resource="http://purl.org/dc/dcmitype/StillImage" /><dc:title></dc:title></cc:Work></rdf:RDF></metadata><defs
     id="defs9" /><sodipodi:namedview
     pagecolor="#ffffff"
     bordercolor="#666666"
     borderopacity="1"
     objecttolerance="10"
     gridtolerance="10"
     guidetolerance="10"
     inkscape:pageopacity="0"
     inkscape:pageshadow="2"
     inkscape:window-width="1920"
     inkscape:window-height="1017"
     id="namedview7"
     showgrid="false"
     fit-margin-top="0"
     fit-margin-left="0"
     fit-margin-right="0"
     fit-margin-bottom="0"
     inkscape:zoom="0.43037657"
     inkscape:cx="278.82559"
     inkscape:cy="156.43161"
     inkscape:window-x="0"
     inkscape:window-y="0"
     inkscape:window-maximized="1"
     inkscape:current-layer="Capa_1" /><g
     id="g3"
     style="fill:#ffffff;fill-opacity:1"
     transform="translate(0,-117.74736)"><path
       d="m 545.45,400.298 c -0.664,-1.432 -1.283,-2.618 -1.857,-3.569 -9.515,-17.135 -27.695,-38.167 -54.532,-63.102 l -0.567,-0.571 -0.283,-0.28 -0.287,-0.287 -0.288,0 c -12.181,-11.61 -19.894,-19.418 -23.123,-23.415 -5.91,-7.613 -7.234,-15.32 -4.004,-23.13 2.282,-5.899 10.854,-18.359 25.695,-37.396 7.808,-10.089 13.99,-18.175 18.557,-24.268 32.931,-43.779 47.208,-71.756 42.828,-83.938 l -1.701,-2.847 c -1.144,-1.715 -4.093,-3.282 -8.847,-4.713 -4.764,-1.427 -10.853,-1.662 -18.277,-0.712 l -82.225,0.568 c -1.332,-0.472 -3.233,-0.428 -5.712,0.144 -2.475,0.572 -3.713,0.859 -3.713,0.859 l -1.431,0.715 -1.136,0.859 c -0.952,0.567 -1.999,1.566 -3.143,2.995 -1.137,1.423 -2.088,3.093 -2.848,4.996 -8.952,23.03 -19.13,44.443 -30.553,64.237 -7.043,11.804 -13.511,22.032 -19.418,30.693 -5.899,8.658 -10.849,15.037 -14.842,19.126 -4,4.093 -7.61,7.372 -10.853,9.849 -3.237,2.479 -5.708,3.525 -7.419,3.143 -1.715,-0.383 -3.33,-0.764 -4.859,-1.144 -2.662,-1.714 -4.805,-4.045 -6.42,-6.995 -1.622,-2.949 -2.714,-6.662 -3.284,-11.136 -0.568,-4.476 -0.904,-8.326 -1,-11.563 -0.09,-3.233 -0.049,-7.807 0.145,-13.706 0.198,-5.903 0.287,-9.897 0.287,-11.991 0,-7.234 0.141,-15.085 0.424,-23.555 0.288,-8.471 0.521,-15.182 0.716,-20.125 0.194,-4.949 0.284,-10.186 0.284,-15.705 0,-5.521 -0.336,-9.85 -1,-12.991 -0.656,-3.138 -1.663,-6.184 -2.99,-9.137 -1.335,-2.95 -3.289,-5.232 -5.853,-6.853 -2.569,-1.618 -5.763,-2.901 -9.564,-3.855 -10.089,-2.283 -22.936,-3.519 -38.547,-3.71 -35.4,-0.38 -58.147,1.905 -68.235,6.854 -3.997,2.091 -7.614,4.948 -10.849,8.563 -3.427,4.188 -3.905,6.475 -1.431,6.851 11.422,1.711 19.508,5.804 24.267,12.275 l 1.715,3.429 c 1.334,2.474 2.666,6.854 3.999,13.134 1.331,6.28 2.19,13.228 2.568,20.837 0.95,13.897 0.95,25.793 0,35.689 -0.953,9.899 -1.853,17.606 -2.712,23.127 -0.859,5.52 -2.144,9.993 -3.855,13.418 -1.715,3.426 -2.855,5.52 -3.428,6.28 -0.571,0.76 -1.047,1.238 -1.425,1.427 -2.474,0.948 -5.047,1.431 -7.71,1.431 -2.667,0 -5.901,-1.334 -9.707,-4 -3.805,-2.666 -7.754,-6.328 -11.847,-10.992 -4.094,-4.665 -8.709,-11.184 -13.851,-19.558 -5.137,-8.374 -10.467,-18.271 -15.987,-29.691 l -4.566,-8.281 c -2.855,-5.328 -6.755,-13.086 -11.704,-23.268 -4.952,-10.185 -9.329,-20.037 -13.134,-29.554 -1.521,-3.997 -3.807,-7.04 -6.852,-9.134 l -1.429,-0.859 c -0.95,-0.76 -2.475,-1.566 -4.567,-2.427 -2.095,-0.859 -4.28,-1.476 -6.566,-1.854 l -78.229,0.568 c -7.994,0 -13.418,1.811 -16.273,5.428 l -1.144,1.711 C 0.288,140.146 0,141.668 0,143.763 c 0,2.094 0.57,4.664 1.714,7.707 11.42,26.84 23.839,52.725 37.257,77.659 13.418,24.934 25.078,45.019 34.973,60.237 9.897,15.229 19.985,29.602 30.265,43.111 10.278,13.515 17.083,22.176 20.412,25.98 3.333,3.813 5.95,6.662 7.854,8.565 l 7.139,6.851 c 4.568,4.569 11.276,10.041 20.128,16.416 8.853,6.38 18.653,12.659 29.407,18.851 10.756,6.181 23.27,11.225 37.546,15.126 14.275,3.905 28.169,5.472 41.685,4.716 l 32.834,0 c 6.659,-0.575 11.704,-2.669 15.133,-6.283 l 1.136,-1.431 c 0.765,-1.136 1.479,-2.901 2.14,-5.276 0.668,-2.379 1,-5 1,-7.851 -0.195,-8.183 0.428,-15.558 1.852,-22.124 1.423,-6.564 3.045,-11.513 4.859,-14.846 1.813,-3.33 3.858,-6.141 6.136,-8.418 2.282,-2.283 3.908,-3.666 4.862,-4.143 0.947,-0.479 1.705,-0.804 2.275,-0.999 4.568,-1.521 9.944,-0.048 16.137,4.43 6.187,4.473 11.989,9.995 17.418,16.56 5.425,6.57 11.942,13.941 19.555,22.124 7.617,8.186 14.277,14.271 19.984,18.273 l 5.708,3.427 c 3.813,2.286 8.761,4.38 14.854,6.282 6.081,1.902 11.409,2.379 15.983,1.428 l 73.087,-1.141 c 7.229,0 12.854,-1.196 16.845,-3.571 3.998,-2.379 6.373,-5 7.139,-7.852 0.764,-2.854 0.805,-6.092 0.145,-9.712 -0.681,-3.61 -1.347,-6.134 -2.012,-7.561 z"
       id="path5"
       style="fill:#ffffff;fill-opacity:1"
       inkscape:connector-curvature="0" /></g></svg>