<?xml version="1.0" encoding="utf-8"?>
<!-- Generator: Adobe Illustrator 16.0.0, SVG Export Plug-In . SVG Version: 6.00 Build 0)  -->
<!DOCTYPE svg PUBLIC "-//W3C//DTD SVG 1.1//EN" "http://www.w3.org/Graphics/SVG/1.1/DTD/svg11.dtd">
<svg fill="#0b325c" version="1.1" id="Layer_1" xmlns="http://www.w3.org/2000/svg" xmlns:xlink="http://www.w3.org/1999/xlink" x="0px" y="0px"
	 width="335.311px" height="472.504px" viewBox="253.243 1.86 335.311 472.504"
	 enable-background="new 253.243 1.86 335.311 472.504" xml:space="preserve">
<g>
	<path d="M314.352,151.052c2.232,55.063,46.32,132.822,106.593,132.822c59.249,0,102.872-75.154,106.406-130.032
		c15.998-0.278,23.16-7.813,26.416-16.556c3.348-9.022,3.255-22.138-12.557-32.741C531.909,45.669,480.938,1.86,420.945,1.86
		S309.981,45.669,300.679,104.453c-1.581,1.023-14.696,9.115-10.882,25.672C294.355,150.216,315.748,151.332,314.352,151.052z
		 M420.945,268.62c-46.413,0-87.711-62.597-91.152-115.149c29.578,4.093,62.69,5.953,95.338,5.953c30.415,0,60.365-1.488,86.78-4
		C507.725,207.511,466.801,268.62,420.945,268.62z M451.453,21.579v18.417c0,16.835-13.673,30.508-30.508,30.508
		c-16.836,0-30.509-13.766-30.509-30.508V21.579c9.674-2.884,19.905-4.465,30.509-4.465S441.78,18.695,451.453,21.579z
		 M314.539,115.708c0,0,3.441-61.761,60.737-88.176v12.464c0,25.206,20.556,45.762,45.762,45.762
		c25.207,0,45.763-20.556,45.763-45.762V27.532c58.598,29.95,60.737,88.176,60.737,88.176s6.417,0.279,10.231,5.581
		c6.604,9.115-0.559,15.998-5.396,16.556c-61.295,7.627-152.54,9.859-218.394-2.325c-5.58-1.023-8.743-5.302-9.208-8.743
		C303.005,116.637,314.539,115.708,314.539,115.708z"/>
	<path d="M500.285,257.179c0,0-33.856,41.856-79.34,41.856c-46.32,0-79.34-41.856-79.34-41.856s-86.409,32.834-88.362,133.287
		v83.897h335.311V390.56C588.646,291.036,500.285,257.179,500.285,257.179z M512.377,398.187v60.923H329.513v-60.923H512.377z
		 M420.945,314.29c26.509,0,53.11-11.44,76.178-32.369v101.013H344.767V281.921C367.835,302.849,394.436,314.29,420.945,314.29z
		 M268.497,390.56c0-44.646,23.532-86.223,60.924-109.662v102.128h-15.254v76.177h-45.67V390.56z M573.392,459.11h-45.762v-76.177
		h-15.254V280.804c37.483,23.533,60.923,65.017,60.923,109.662v68.644H573.392z"/>
	<rect x="352.394" y="413.441" width="15.254" height="15.254"/>
	<rect x="474.335" y="413.441" width="15.254" height="15.254"/>
</g>
</svg>
