<?xml version="1.0" encoding="utf-8"?>
<!-- Generator: Adobe Illustrator 16.0.0, SVG Export Plug-In . SVG Version: 6.00 Build 0)  -->
<!DOCTYPE svg PUBLIC "-//W3C//DTD SVG 1.1//EN" "http://www.w3.org/Graphics/SVG/1.1/DTD/svg11.dtd">
<svg fill="#0b325c" version="1.1" id="Layer_1" xmlns="http://www.w3.org/2000/svg" xmlns:xlink="http://www.w3.org/1999/xlink" x="0px" y="0px"
	 width="476.984px" height="476.225px" viewBox="182.541 0 476.984 476.225" enable-background="new 182.541 0 476.984 476.225"
	 xml:space="preserve">
<g>
	<path d="M652.36,82.595L576.462,6.697c-8.929-8.93-25.299-8.93-34.973,0l-37.205,37.205l110.127,110.127l37.205-37.205
		C662.034,107.894,662.034,92.268,652.36,82.595z M641.943,107.15l-26.788,26.788l-89.292-89.292l26.788-26.788
		c3.72-3.721,9.673-3.721,13.394,0l75.898,75.898C645.664,96.733,645.664,103.43,641.943,107.15z"/>
	<path d="M495.355,63.993c-1.488-1.488-2.977-2.232-5.209-2.232s-3.721,0.744-5.209,2.232L236.408,311.778
		c-1.488,1.488-2.232,2.977-2.232,5.209c0,0,0,0,0,0.744l-51.343,148.82c-0.744,2.976,0,5.952,1.488,7.44
		c2.232,1.488,3.721,2.232,5.953,2.232c0.744,0,1.487,0,2.231-0.744l148.82-51.343c0,0,0,0,0.744,0l0,0
		c2.232,0,3.721-0.744,5.209-2.232L595.064,174.12c2.977-2.977,2.977-7.441,0-10.418L495.355,63.993z M545.954,136.171
		L308.586,373.539l-23.067-23.067l237.368-237.368L545.954,136.171z M490.146,79.619l22.323,22.323L275.101,340.054l-22.323-22.323
		L490.146,79.619z M234.92,444.972l-21.579-21.579l31.996-92.269l81.852,81.852L234.92,444.972z M342.07,406.279l-22.323-22.323
		l237.368-237.368l22.323,22.323L342.07,406.279z"/>
</g>
</svg>
