<?xml version="1.0" encoding="utf-8"?>
<!-- Generator: Adobe Illustrator 16.0.0, SVG Export Plug-In . SVG Version: 6.00 Build 0)  -->
<!DOCTYPE svg PUBLIC "-//W3C//DTD SVG 1.1//EN" "http://www.w3.org/Graphics/SVG/1.1/DTD/svg11.dtd">
<svg fill="#0b325c" version="1.1" id="Layer_1" xmlns="http://www.w3.org/2000/svg" xmlns:xlink="http://www.w3.org/1999/xlink" x="0px" y="0px"
	 width="460.35px" height="460.351px" viewBox="190.77 7.937 460.35 460.351" enable-background="new 190.77 7.937 460.35 460.351"
	 xml:space="preserve">
<g>
	<path d="M643.679,262.42c9.921-14.882,9.921-34.229,0-48.615l-17.362-25.795c-1.488-2.977-1.984-5.953-1.984-9.426l1.984-31.252
		c0.992-17.858-8.434-34.229-24.308-42.166l-27.779-13.89c-2.977-1.488-4.961-3.473-6.449-6.448l-13.89-27.78
		c-7.938-15.874-24.804-25.299-42.166-24.308l-31.252,1.984c-2.977,0-6.449-0.496-8.93-2.48l-25.795-16.866l0,0
		c-14.883-9.921-33.733-9.921-48.615,0L371.339,32.74c-3.473,1.488-6.449,1.984-9.922,1.984l-31.252-1.984
		c-17.858-0.991-34.229,8.434-42.166,24.308l-13.89,27.78c-1.488,2.976-3.473,4.96-6.449,6.448l-27.779,13.89
		c-15.874,7.938-25.3,24.804-24.308,42.166l1.984,31.252c0,2.977-0.496,6.449-2.48,8.93l-16.866,25.795
		c-9.921,14.883-9.921,34.229,0,48.615l17.362,25.795c1.488,3.473,1.984,6.449,1.984,9.922l-1.984,31.252
		c-0.992,17.858,8.434,34.229,24.308,42.166l27.779,13.89c2.977,1.488,4.961,3.969,6.449,6.449l13.89,27.779
		c7.938,15.874,24.804,25.3,42.166,24.308l31.252-1.984c2.977,0,6.449,0.496,8.93,2.48l25.795,16.866
		c7.441,4.961,15.874,7.441,24.308,7.441s16.866-2.48,24.308-7.441l25.795-17.362c2.48-1.488,5.953-2.48,8.93-2.48l31.252,1.984
		c17.858,0.992,34.229-8.434,42.166-24.308l13.89-27.779c1.488-2.977,3.473-4.961,6.449-6.449l27.779-13.89
		c15.874-7.938,25.3-24.804,24.308-42.166l-0.992-30.756c0-2.977,0.496-6.449,2.48-8.93L643.679,262.42z M618.876,246.05
		l-16.866,25.795c-5.457,7.938-7.938,17.362-7.441,26.788l1.984,31.252c0.496,5.953-2.977,11.41-7.937,13.89l-27.78,13.891
		c-8.433,4.464-15.378,11.409-19.843,19.843l-13.89,27.779c-2.48,5.457-7.937,8.434-13.89,7.938l-31.252-1.488
		c-9.426-0.496-18.851,1.984-26.788,7.44l-25.795,16.866c-4.961,2.977-11.41,2.977-15.875,0l-25.795-16.866
		c-7.441-4.96-15.875-7.44-24.308-7.44c-0.992,0-1.488,0-2.48,0l-31.252,1.984c-5.953,0.496-11.41-2.977-13.89-7.938l-13.891-27.779
		c-4.464-8.434-11.409-15.379-19.843-19.843l-27.779-13.891c-5.457-2.479-8.434-7.937-7.938-13.89l1.984-31.252
		c0.496-9.426-1.984-18.851-7.44-26.788l-16.866-25.795c-2.977-4.961-2.977-11.41,0-15.875l16.866-25.795
		c5.456-7.938,7.937-17.362,7.44-26.788l-1.984-31.252c-0.496-5.953,2.977-11.409,7.938-13.89l27.779-13.89
		c8.434-4.465,15.379-11.41,19.843-19.843l13.891-27.78c2.479-5.456,7.937-8.433,13.89-7.937l31.252,1.984
		c9.426,0.496,18.851-1.984,26.788-7.441l25.795-16.866c4.961-2.977,11.41-2.977,15.875,0l25.795,16.866
		c7.938,5.457,17.362,7.938,26.788,7.441l31.252-1.984c5.953-0.496,11.409,2.977,13.89,7.937l13.89,27.78
		c4.465,8.433,11.41,15.378,19.843,19.843l27.78,13.89c5.456,2.48,8.433,7.937,7.937,13.89l-1.984,30.26
		c-0.496,9.426,1.984,18.851,7.441,26.788l16.866,25.796C622.348,235.135,622.348,241.089,618.876,246.05z"/>
	<path d="M370.843,229.183c26.291,0,48.118-21.827,48.118-48.119c0-26.291-21.827-48.118-48.118-48.118
		c-26.292,0-48.119,21.827-48.119,48.118C322.723,208.348,344.054,229.183,370.843,229.183z M370.843,159.237
		c12.401,0,22.322,9.922,22.322,22.323c0,12.402-9.921,21.827-22.322,21.827c-12.402,0-22.323-9.921-22.323-22.323
		C348.519,168.663,358.44,159.237,370.843,159.237z"/>
	<path d="M471.048,247.042c-26.291,0-48.118,21.826-48.118,48.118s21.827,48.118,48.118,48.118
		c26.292,0,48.118-21.826,48.118-48.118C519.167,267.876,497.836,247.042,471.048,247.042z M471.048,316.987
		c-12.401,0-22.323-9.921-22.323-22.323c0-12.401,9.922-22.323,22.323-22.323c12.402,0,22.323,9.922,22.323,22.323
		C493.371,307.066,483.45,316.987,471.048,316.987z"/>
	<path d="M513.214,145.844c-5.457-5.457-13.394-5.457-18.354,0L328.677,311.53c-5.457,5.457-5.457,13.394,0,18.354
		c2.48,2.48,5.953,3.969,8.929,3.969c2.977,0,6.449-1.488,8.93-3.969l165.687-165.687
		C517.678,159.237,517.678,151.301,513.214,145.844z"/>
</g>
</svg>
