<?xml version="1.0" encoding="UTF-8" standalone="no"?>
<!-- Generator: Adobe Illustrator 16.0.0, SVG Export Plug-In . SVG Version: 6.00 Build 0)  -->

<svg
   xmlns:dc="http://purl.org/dc/elements/1.1/"
   xmlns:cc="http://creativecommons.org/ns#"
   xmlns:rdf="http://www.w3.org/1999/02/22-rdf-syntax-ns#"
   xmlns:svg="http://www.w3.org/2000/svg"
   xmlns="http://www.w3.org/2000/svg"
   xmlns:sodipodi="http://sodipodi.sourceforge.net/DTD/sodipodi-0.dtd"
   xmlns:inkscape="http://www.inkscape.org/namespaces/inkscape"
   version="1.1"
   id="Layer_1"
   x="0px"
   y="0px"
   width="425.83975"
   height="183.1864"
   viewBox="312.26 23.814 425.83974 183.1864"
   enable-background="new 312.26 23.814 217.367 428.598"
   xml:space="preserve"
   sodipodi:docname="arrow.svg"
   style="fill:#1d75cd"
   inkscape:version="0.92.1 r15371"><metadata
     id="metadata11"><rdf:RDF><cc:Work
         rdf:about=""><dc:format>image/svg+xml</dc:format><dc:type
           rdf:resource="http://purl.org/dc/dcmitype/StillImage" /><dc:title></dc:title></cc:Work></rdf:RDF></metadata><defs
     id="defs9" /><sodipodi:namedview
     pagecolor="#ffffff"
     bordercolor="#666666"
     borderopacity="1"
     objecttolerance="10"
     gridtolerance="10"
     guidetolerance="10"
     inkscape:pageopacity="0"
     inkscape:pageshadow="2"
     inkscape:window-width="1530"
     inkscape:window-height="765"
     id="namedview7"
     showgrid="false"
     fit-margin-top="0"
     fit-margin-left="0"
     fit-margin-right="0"
     fit-margin-bottom="0"
     inkscape:zoom="0.55063254"
     inkscape:cx="224.20062"
     inkscape:cy="-113.21518"
     inkscape:window-x="364"
     inkscape:window-y="211"
     inkscape:window-maximized="0"
     inkscape:current-layer="g4" /><g
     id="g4"
     transform="translate(115.51712,82.102588)"><path
       d="m 617.27564,-48.506509 c 5.35605,29.032257 6.56191,58.119464 4.05107,88.083048 -1.08699,12.960663 -20.94338,15.217488 -25.94704,4.904045 C 589.81102,32.994265 586.03798,21.285857 583.82783,9.2644916 544.68735,62.401732 484.24846,100.47347 416.90204,115.86251 c -68.74698,15.7111 -184.59775,16.94673 -219.47507,-46.416603 -3.3398,-6.061721 6.40079,-10.60391 10.85322,-6.466306 48.971,45.481289 142.89866,46.251789 210.35673,28.572155 60.51907,-15.859758 114.11762,-51.553352 147.6917,-100.7931709 -8.9038,4.4849082 -18.02323,8.56145776 -27.4189,12.0862287 -16.04067,6.019136 -25.74085,-14.5163508 -9.84205,-21.7852438 23.42104,-10.711378 45.36422,-21.805996 66.61725,-36.360935 8.70862,-5.960945 19.84372,-2.646447 21.59072,6.794855 z"
       id="path2"
       inkscape:connector-curvature="0"
       style="stroke-width:0.94312352" /></g></svg>