<?xml version="1.0" encoding="utf-8"?>
<!-- Generator: Adobe Illustrator 16.0.0, SVG Export Plug-In . SVG Version: 6.00 Build 0)  -->
<!DOCTYPE svg PUBLIC "-//W3C//DTD SVG 1.1//EN" "http://www.w3.org/Graphics/SVG/1.1/DTD/svg11.dtd">
<svg version="1.1" id="Layer_1" xmlns="http://www.w3.org/2000/svg" xmlns:xlink="http://www.w3.org/1999/xlink" x="0px" y="0px"
	 width="110.088px" height="42.169px" viewBox="0 0 110.088 42.169" enable-background="new 0 0 110.088 42.169"
	 xml:space="preserve">
<g>
	<path fill="#2081D1" d="M38.088,0.396h7.92v9h4.139l8.965-9H70.02l-12.852,12.24l14.508,13.465H60.191L50.146,16.056h-4.139v10.045
		h-7.92V0.396z"/>
	<path fill="#2081D1" d="M77.146,0.396h7.92v9h17.102v-9h7.92v25.705h-7.92V16.056H85.066v10.045h-7.92V0.396z"/>
</g>
<g>
	<path fill="#2081D1" d="M0.014,12.41C0.01,12.681,0,12.931,0,13.212c0,0.293,0.012,0.555,0.014,0.837h7.918
		c-0.006-0.261-0.012-0.52-0.012-0.801c0-0.294,0.006-0.565,0.012-0.838H0.014z"/>
	<path fill="#2081D1" d="M8.012,10.783c0.139-1.716,0.441-2.8,0.916-3.224C9.6,6.96,11.867,6.66,15.732,6.66
		c3.455,0,5.674,0.252,6.658,0.756c0.793,0.409,1.189,1.356,1.189,2.845h7.955c0-4.561-0.744-7.368-2.232-8.425
		C27.6,0.612,23.076,0,15.732,0C8.34,0,3.84,0.696,2.232,2.088c-1.279,1.113-2.004,4.021-2.184,8.695H8.012z"/>
	<path fill="#2081D1" d="M22.301,19.17c-0.875,0.421-3.066,0.63-6.568,0.63c-3.865,0-6.133-0.299-6.805-0.9
		c-0.477-0.425-0.779-1.508-0.918-3.224H0.053c0.188,4.684,0.941,7.616,2.27,8.769c1.547,1.344,6.018,2.016,13.41,2.016
		c7.391,0,11.939-0.611,13.643-1.836c1.441-1.031,2.16-3.84,2.16-8.424h-7.92C23.615,17.761,23.178,18.751,22.301,19.17z"/>
</g>
<g>
	<path fill="#2B2A2A" d="M4.757,38.118l0.874,0.117c-0.096,0.621-0.34,1.107-0.733,1.458c-0.393,0.352-0.875,0.527-1.448,0.527
		c-0.717,0-1.293-0.242-1.729-0.725c-0.437-0.484-0.654-1.177-0.654-2.08c0-0.583,0.094-1.094,0.281-1.532
		c0.188-0.438,0.473-0.766,0.856-0.985c0.383-0.219,0.8-0.329,1.25-0.329c0.569,0,1.035,0.148,1.396,0.445
		c0.362,0.297,0.594,0.719,0.696,1.265l-0.863,0.137c-0.083-0.363-0.229-0.636-0.438-0.819s-0.461-0.275-0.757-0.275
		c-0.447,0-0.811,0.166-1.091,0.496c-0.279,0.331-0.419,0.854-0.419,1.57c0,0.727,0.135,1.254,0.404,1.583s0.622,0.494,1.056,0.494
		c0.349,0,0.64-0.11,0.874-0.331C4.547,38.915,4.694,38.576,4.757,38.118z"/>
	<path fill="#2B2A2A" d="M5.811,34.692h4.258v0.759H8.381v4.647H7.498v-4.647H5.811V34.692z"/>
	<path fill="#2B2A2A" d="M10.816,42.169v-7.478h0.81v0.703c0.19-0.275,0.406-0.481,0.646-0.619c0.24-0.137,0.531-0.206,0.874-0.206
		c0.447,0,0.842,0.119,1.184,0.356c0.343,0.237,0.601,0.573,0.775,1.005c0.174,0.433,0.261,0.907,0.261,1.422
		c0,0.553-0.096,1.051-0.288,1.494s-0.473,0.782-0.839,1.018c-0.367,0.236-0.753,0.354-1.157,0.354
		c-0.296,0-0.562-0.064-0.797-0.193s-0.429-0.292-0.58-0.489v2.632H10.816z M11.621,37.425c0,0.696,0.136,1.21,0.409,1.542
		c0.272,0.333,0.604,0.499,0.991,0.499c0.396,0,0.733-0.172,1.015-0.517c0.281-0.344,0.422-0.878,0.422-1.601
		c0-0.689-0.138-1.205-0.412-1.547s-0.603-0.514-0.984-0.514c-0.379,0-0.713,0.183-1.004,0.547S11.621,36.73,11.621,37.425z"/>
	<path fill="#2B2A2A" d="M16.005,37.395c0-1.001,0.27-1.743,0.809-2.225c0.451-0.4,1-0.601,1.648-0.601
		c0.72,0,1.309,0.244,1.766,0.73s0.687,1.16,0.687,2.018c0,0.696-0.102,1.243-0.304,1.642c-0.202,0.399-0.497,0.708-0.883,0.929
		c-0.387,0.22-0.809,0.331-1.266,0.331c-0.734,0-1.327-0.243-1.779-0.728C16.23,39.007,16.005,38.308,16.005,37.395z M16.917,37.395
		c0,0.692,0.146,1.21,0.439,1.555c0.293,0.345,0.661,0.517,1.105,0.517c0.44,0,0.807-0.173,1.1-0.519s0.439-0.874,0.439-1.583
		c0-0.668-0.147-1.175-0.441-1.52c-0.295-0.344-0.66-0.517-1.098-0.517c-0.444,0-0.813,0.171-1.105,0.514
		S16.917,36.703,16.917,37.395z"/>
	<path fill="#2B2A2A" d="M21.854,34.692h0.888v4.123l2.463-4.123h0.957v5.406h-0.889V36l-2.462,4.098h-0.957V34.692z"/>
	<path fill="#2B2A2A" d="M26.918,34.692h4.258v0.759h-1.688v4.647h-0.883v-4.647h-1.688V34.692z"/>
	<path fill="#2B2A2A" d="M35.397,38.357l0.918,0.117c-0.145,0.553-0.413,0.982-0.805,1.288s-0.892,0.458-1.5,0.458
		c-0.766,0-1.374-0.243-1.822-0.73c-0.449-0.487-0.674-1.17-0.674-2.048c0-0.91,0.227-1.615,0.681-2.118
		c0.454-0.502,1.043-0.753,1.767-0.753c0.7,0,1.272,0.246,1.717,0.738c0.444,0.492,0.666,1.184,0.666,2.077
		c0,0.054-0.002,0.136-0.005,0.244h-3.907c0.032,0.594,0.195,1.049,0.488,1.364s0.657,0.473,1.095,0.473
		c0.326,0,0.604-0.088,0.834-0.265C35.08,39.025,35.263,38.744,35.397,38.357z M32.481,36.875h2.926
		c-0.039-0.455-0.151-0.795-0.335-1.023c-0.283-0.353-0.65-0.529-1.101-0.529c-0.408,0-0.751,0.141-1.028,0.422
		C32.665,36.027,32.511,36.404,32.481,36.875z"/>
	<path fill="#2B2A2A" d="M37.428,34.692h4.124v5.406h-0.883v-4.647h-2.354v2.692c0,0.628-0.02,1.042-0.06,1.242
		c-0.039,0.2-0.147,0.375-0.325,0.524c-0.178,0.149-0.435,0.224-0.77,0.224c-0.207,0-0.446-0.014-0.716-0.041v-0.764h0.39
		c0.185,0,0.316-0.02,0.396-0.059c0.078-0.039,0.131-0.101,0.157-0.186c0.026-0.085,0.04-0.362,0.04-0.83V34.692z"/>
	<path fill="#2B2A2A" d="M42.773,34.692h0.888v2.112h1.125c0.733,0,1.299,0.147,1.695,0.44s0.595,0.698,0.595,1.214
		c0,0.452-0.166,0.837-0.496,1.158c-0.331,0.321-0.859,0.481-1.587,0.481h-2.22V34.692z M43.661,39.344h0.933
		c0.563,0,0.964-0.071,1.204-0.214c0.24-0.142,0.36-0.365,0.36-0.667c0-0.234-0.089-0.443-0.267-0.626
		c-0.178-0.184-0.57-0.275-1.18-0.275h-1.051V39.344z"/>
	<path fill="#2B2A2A" d="M47.956,34.692h0.889v2.25h2.462v-2.25h0.888v5.406h-0.888V37.7h-2.462v2.397h-0.889V34.692z"/>
	<path fill="#2B2A2A" d="M56.85,39.431c-0.329,0.289-0.646,0.492-0.949,0.611c-0.305,0.119-0.631,0.178-0.979,0.178
		c-0.576,0-1.019-0.145-1.327-0.435c-0.31-0.29-0.464-0.661-0.464-1.112c0-0.265,0.059-0.506,0.175-0.725
		c0.117-0.219,0.27-0.395,0.459-0.527s0.402-0.232,0.639-0.3c0.175-0.047,0.438-0.093,0.79-0.138
		c0.717-0.088,1.245-0.193,1.584-0.315c0.003-0.125,0.005-0.205,0.005-0.239c0-0.373-0.084-0.636-0.252-0.789
		c-0.228-0.207-0.564-0.311-1.012-0.311c-0.418,0-0.726,0.076-0.925,0.227c-0.199,0.151-0.347,0.418-0.441,0.802l-0.869-0.122
		c0.079-0.383,0.209-0.693,0.391-0.929c0.181-0.236,0.442-0.417,0.784-0.545c0.342-0.127,0.738-0.191,1.189-0.191
		c0.447,0,0.811,0.054,1.09,0.163c0.279,0.108,0.485,0.245,0.617,0.41c0.131,0.165,0.224,0.373,0.276,0.624
		c0.029,0.156,0.044,0.438,0.044,0.845v1.222c0,0.852,0.019,1.391,0.057,1.616s0.112,0.442,0.225,0.649h-0.928
		C56.936,39.908,56.876,39.686,56.85,39.431z M56.776,37.385c-0.323,0.136-0.807,0.251-1.451,0.346
		c-0.365,0.054-0.623,0.115-0.774,0.183s-0.269,0.167-0.351,0.298c-0.082,0.13-0.123,0.276-0.123,0.435
		c0,0.244,0.09,0.448,0.269,0.611c0.18,0.163,0.441,0.244,0.787,0.244c0.342,0,0.646-0.077,0.913-0.231s0.462-0.366,0.587-0.634
		c0.096-0.207,0.144-0.512,0.144-0.916V37.385z"/>
	<path fill="#2B2A2A" d="M63.074,34.692v5.406H62.19V37.99h-0.513c-0.313,0-0.545,0.042-0.698,0.125s-0.376,0.35-0.669,0.802
		l-0.774,1.181h-1.1l0.957-1.456c0.293-0.445,0.584-0.696,0.873-0.753c-0.507-0.071-0.883-0.26-1.127-0.565
		c-0.245-0.306-0.368-0.657-0.368-1.054c0-0.468,0.16-0.848,0.481-1.14c0.32-0.292,0.785-0.438,1.394-0.438H63.074z M62.19,35.451
		h-1.263c-0.529,0-0.871,0.084-1.023,0.254c-0.153,0.169-0.229,0.368-0.229,0.595c0,0.323,0.112,0.56,0.338,0.71
		c0.225,0.151,0.624,0.227,1.196,0.227h0.981V35.451z"/>
	<path fill="#2B2A2A" d="M67.021,34.692h0.888v2.336c0.283,0,0.481-0.056,0.595-0.168s0.28-0.438,0.501-0.977
		c0.175-0.428,0.315-0.709,0.425-0.845c0.108-0.136,0.233-0.227,0.375-0.275c0.141-0.047,0.368-0.071,0.681-0.071h0.178v0.759
		l-0.247-0.005c-0.233,0-0.383,0.036-0.449,0.107c-0.069,0.075-0.174,0.297-0.315,0.667c-0.135,0.353-0.259,0.597-0.37,0.733
		c-0.112,0.136-0.284,0.259-0.519,0.372c0.382,0.105,0.757,0.472,1.125,1.099l0.973,1.675h-0.978l-0.947-1.675
		c-0.193-0.336-0.363-0.557-0.508-0.664s-0.317-0.16-0.519-0.16v2.499h-0.888V34.692z"/>
	<path fill="#2B2A2A" d="M71.13,37.395c0-1.001,0.27-1.743,0.809-2.225c0.451-0.4,1-0.601,1.648-0.601
		c0.72,0,1.309,0.244,1.766,0.73s0.687,1.16,0.687,2.018c0,0.696-0.102,1.243-0.304,1.642c-0.202,0.399-0.497,0.708-0.883,0.929
		c-0.387,0.22-0.809,0.331-1.266,0.331c-0.734,0-1.327-0.243-1.779-0.728C71.355,39.007,71.13,38.308,71.13,37.395z M72.042,37.395
		c0,0.692,0.146,1.21,0.439,1.555c0.293,0.345,0.661,0.517,1.105,0.517c0.44,0,0.807-0.173,1.1-0.519s0.439-0.874,0.439-1.583
		c0-0.668-0.147-1.175-0.441-1.52c-0.295-0.344-0.66-0.517-1.098-0.517c-0.444,0-0.813,0.171-1.105,0.514
		S72.042,36.703,72.042,37.395z"/>
	<path fill="#2B2A2A" d="M77.003,34.692h1.382l1.377,4.327l1.529-4.327h1.277v5.406h-0.888v-4.352l-1.55,4.352h-0.794l-1.465-4.561
		v4.561h-0.869V34.692z"/>
	<path fill="#2B2A2A" d="M83.829,34.692h4.135v5.406h-0.888v-4.647h-2.358v4.647h-0.889V34.692z"/>
	<path fill="#2B2A2A" d="M92.613,39.431c-0.329,0.289-0.646,0.492-0.949,0.611c-0.305,0.119-0.631,0.178-0.979,0.178
		c-0.576,0-1.019-0.145-1.327-0.435c-0.31-0.29-0.464-0.661-0.464-1.112c0-0.265,0.059-0.506,0.175-0.725
		c0.117-0.219,0.27-0.395,0.459-0.527s0.402-0.232,0.639-0.3c0.175-0.047,0.438-0.093,0.79-0.138
		c0.717-0.088,1.245-0.193,1.584-0.315c0.003-0.125,0.005-0.205,0.005-0.239c0-0.373-0.084-0.636-0.252-0.789
		c-0.228-0.207-0.564-0.311-1.012-0.311c-0.418,0-0.726,0.076-0.925,0.227c-0.199,0.151-0.347,0.418-0.441,0.802l-0.869-0.122
		c0.079-0.383,0.209-0.693,0.391-0.929c0.181-0.236,0.442-0.417,0.784-0.545c0.342-0.127,0.738-0.191,1.189-0.191
		c0.447,0,0.811,0.054,1.09,0.163c0.279,0.108,0.485,0.245,0.617,0.41c0.131,0.165,0.224,0.373,0.276,0.624
		c0.029,0.156,0.044,0.438,0.044,0.845v1.222c0,0.852,0.019,1.391,0.057,1.616s0.112,0.442,0.225,0.649h-0.928
		C92.699,39.908,92.64,39.686,92.613,39.431z M92.54,37.385c-0.323,0.136-0.807,0.251-1.451,0.346
		c-0.365,0.054-0.623,0.115-0.774,0.183s-0.269,0.167-0.351,0.298c-0.082,0.13-0.123,0.276-0.123,0.435
		c0,0.244,0.09,0.448,0.269,0.611c0.18,0.163,0.441,0.244,0.787,0.244c0.342,0,0.646-0.077,0.913-0.231s0.462-0.366,0.587-0.634
		c0.096-0.207,0.144-0.512,0.144-0.916V37.385z"/>
	<path fill="#2B2A2A" d="M94.718,34.692h0.889v2.25h2.462v-2.25h0.888v5.406h-0.888V37.7h-2.462v2.397h-0.889V34.692z"/>
	<path fill="#2B2A2A" d="M100.192,34.692h0.888v4.123l2.463-4.123h0.957v5.406h-0.889V36l-2.462,4.098h-0.957V34.692z"/>
	<path fill="#2B2A2A" d="M109.861,34.692v5.406h-0.884V37.99h-0.513c-0.313,0-0.545,0.042-0.698,0.125s-0.376,0.35-0.669,0.802
		l-0.774,1.181h-1.1l0.957-1.456c0.293-0.445,0.584-0.696,0.873-0.753c-0.507-0.071-0.883-0.26-1.127-0.565
		c-0.245-0.306-0.368-0.657-0.368-1.054c0-0.468,0.16-0.848,0.481-1.14c0.32-0.292,0.785-0.438,1.394-0.438H109.861z
		 M108.978,35.451h-1.263c-0.529,0-0.871,0.084-1.023,0.254c-0.153,0.169-0.229,0.368-0.229,0.595c0,0.323,0.112,0.56,0.338,0.71
		c0.225,0.151,0.624,0.227,1.196,0.227h0.981V35.451z"/>
</g>
</svg>
