<?xml version="1.0" encoding="UTF-8" standalone="no"?>
<!-- Generator: Adobe Illustrator 16.0.0, SVG Export Plug-In . SVG Version: 6.00 Build 0)  -->

<svg
   xmlns:dc="http://purl.org/dc/elements/1.1/"
   xmlns:cc="http://creativecommons.org/ns#"
   xmlns:rdf="http://www.w3.org/1999/02/22-rdf-syntax-ns#"
   xmlns:svg="http://www.w3.org/2000/svg"
   xmlns="http://www.w3.org/2000/svg"
   xmlns:sodipodi="http://sodipodi.sourceforge.net/DTD/sodipodi-0.dtd"
   xmlns:inkscape="http://www.inkscape.org/namespaces/inkscape"
   version="1.1"
   id="Layer_1"
   x="0px"
   y="0px"
   width="454.913px"
   height="430.01px"
   viewBox="193.488 23.144 454.913 430.01"
   enable-background="new 193.488 23.144 454.913 430.01"
   xml:space="preserve"
   inkscape:version="0.91 r13725"
   sodipodi:docname="grip.svg"><metadata
     id="metadata9"><rdf:RDF><cc:Work
         rdf:about=""><dc:format>image/svg+xml</dc:format><dc:type
           rdf:resource="http://purl.org/dc/dcmitype/StillImage" /></cc:Work></rdf:RDF></metadata><defs
     id="defs7" /><sodipodi:namedview
     pagecolor="#ffffff"
     bordercolor="#666666"
     borderopacity="1"
     objecttolerance="10"
     gridtolerance="10"
     guidetolerance="10"
     inkscape:pageopacity="0"
     inkscape:pageshadow="2"
     inkscape:window-width="1920"
     inkscape:window-height="1017"
     id="namedview5"
     showgrid="false"
     inkscape:zoom="0.54882443"
     inkscape:cx="231.10065"
     inkscape:cy="215.005"
     inkscape:window-x="0"
     inkscape:window-y="0"
     inkscape:window-maximized="1"
     inkscape:current-layer="Layer_1" /><path
     d="M619.376,229.445c-1.353,0.626-2.859,0.841-4.334,0.619l3.905,4.286c0.762,0.856,1.905,2.143,2.953,3.429  c1.012,1.295,1.949,2.646,2.81,4.048c1.651,2.796,2.947,5.787,3.857,8.905c1.788,6.002,2.018,12.361,0.666,18.478  c-2.364,11.294-10.179,20.679-20.858,25.049c-2.801,1.122-5.755,1.813-8.763,2.048l0.477,0.477  c5.117,5.437,8.757,12.093,10.572,19.335c1.673,7.056,1.477,14.426-0.571,21.383c-2.009,6.641-5.776,12.614-10.905,17.286  c-9.413,12.165-24.723,18.213-39.908,15.764l0,0c0.068,7.231-1.754,14.356-5.286,20.668c-4.821,8.542-12.567,15.053-21.811,18.335  c-5.1,1.789-10.547,2.359-15.906,1.666c-0.752,8.926-4.894,17.225-11.572,23.192c-5.702,8.748-14.494,15.023-24.621,17.573  c-10.525,2.573-21.644,0.86-30.906-4.763c-2.876-1.731-5.504-3.847-7.811-6.286c-1.619-1.81-3.19-3.667-4.762-5.524  c-3.096-3.762-6.049-7.667-9.001-11.524c-3.128-4.451-2.585-10.511,1.286-14.334c3.41-4.244,9.615-4.918,13.859-1.508  c0.146,0.118,0.288,0.239,0.427,0.364c3.778,2.73,7.413,5.588,10.905,8.572c1.747,1.492,3.477,3.08,5.191,4.763  c0.59,0.557,1.21,1.081,1.857,1.571c0.472,0.376,0.965,0.726,1.476,1.048c4.207,2.784,9.306,3.889,14.287,3.095  c1.631-0.271,3.228-0.718,4.763-1.333c5.052-4.437,7.992-10.803,8.096-17.525c-0.026-3.548-0.979-7.028-2.763-10.096  c-1.465-2.109-3.055-4.129-4.762-6.048l-5.667-6.715c-6.74-7.657-10.597-17.425-10.906-27.621c-0.387-3.363,1.335-6.619,4.334-8.191  c1.715-0.81,4.763-1.238,5.715-0.285c4.762,5.286,9.524,10.286,14.715,15.239l7.62,7.381l3.81,3.715  c1.286,1.286,2.334,2.238,4.286,4.429c1.307,1.497,2.5,3.089,3.571,4.763c8.984,2.246,18.446-1.045,24.098-8.382  c0.894-1.236,1.659-2.562,2.285-3.953c0.467-6.08-1.219-12.132-4.762-17.096c-2.715-3.096-5.382-6.239-8.048-9.524  c-9.097-9.049-17.431-19.049-25.765-28.574c-5.19-6.048-6.096-12.857-2.237-17.62c2.404-2.875,6.405-3.841,9.857-2.381  l33.336,26.335l1.143,1.19l3.381,3.096l7.239,7.048l3.571,3.572l1.762,1.81l1.096,1.048c2.697,2.565,6.126,4.23,9.811,4.762  c2.407,0.456,4.879,0.456,7.286,0c9.174-4.321,13.733-14.764,10.667-24.43c-0.829-2.472-2.141-4.754-3.857-6.715l-8.524-9.524  l-17.001-19.05c-9.693-10.252-16.539-22.86-19.858-36.574c-0.857-4.048-0.381-7.857,3.381-9.096  c2.354-0.736,4.912-0.406,7.001,0.905c12.144,13.096,25.192,25.383,38.098,38.098c1.596-0.015,3.189,0.113,4.763,0.381  c8.46,1.86,16.944-3.032,19.572-11.286c1.274-4.029,1.02-8.386-0.714-12.239c-0.887-1.933-2.112-3.691-3.62-5.19l-8.143-8.144  l-65.529-65.053l-32.335-32.669l-4-4.095c-1.382-1.429-2.334-2.238-3.477-3.43c-2.102-1.899-4.382-3.59-6.811-5.048  c-3.922-2.602-8.591-3.84-13.286-3.523c-5.317,0.769-10.351,2.883-14.62,6.143c-2.626,1.9-5.139,3.951-7.524,6.144l-8.382,7.715  c-11.207,10.286-22.525,20.398-33.955,30.336c-3.13,3.349-6.437,6.528-9.905,9.524c-4.336,3.444-9.326,5.972-14.668,7.429  c-22.198,5.972-45.033-7.184-51.005-29.382c-0.136-0.506-0.263-1.015-0.38-1.525c-2.654-11.142-0.66-22.885,5.524-32.525  c1.568-2.34,3.338-4.538,5.286-6.572l4.429-4.763l8.811-9.096l17.906-18.001l30.906-31.431c-5.551-4.957-12.382-8.258-19.716-9.524  c-8.063-1.115-16.262-0.744-24.191,1.095c-1.235,1.082-2.382,2.26-3.429,3.524c-1.096,1.19-2.572,3.048-3.857,4.763l-8.001,9.524  c-3.723,4.43-10.332,5.002-14.762,1.279c-0.016-0.014-0.032-0.027-0.049-0.041l0,0l-1.381-1.191  c-3.286-2.857-6.524-5.762-9.524-8.762c-5.481-5.635-10.438-11.756-14.811-18.287c-2.413-4.468-1.359-10.016,2.523-13.287  c2.967-4.12,8.645-5.188,12.906-2.429c6.545,4.441,12.652,9.496,18.239,15.097l0.333-0.238c1.747-2.219,3.657-4.305,5.715-6.238  c2.272-2.15,4.744-4.079,7.382-5.763c5.402-3.234,11.419-5.311,17.668-6.096c11.958-1.333,24.02,1.347,34.288,7.62  c6.632,3.603,11.222,10.074,12.429,17.524c1.619-1.523,3.286-3.096,5.001-4.524c4.491-3.748,9.268-7.14,14.287-10.144  c10.186-5.916,21.269-10.131,32.812-12.477c5.725-1.185,11.54-1.886,17.382-2.096c2.857,0,6.001,0,8.572,0h7.857l31.431,0.953  c23.288,0.714,39.384,5.143,40.908,11.19c1.523,6.049-17.001,10.049-39.67,10.906l-29.954,0.952h-7.477  c-2.524,0-5.096,0-7.096,0.238c-4.291,0.227-8.558,0.784-12.763,1.667c-16.859,3.391-32.347,11.672-44.527,23.811l-42.574,42.384  l-21.479,21.05l-5.381,5.238l-2.715,2.619l-0.952,1l-0.715,0.762c-1.825,2.113-3.13,4.625-3.81,7.334  c-1.728,7.224,1.122,14.77,7.191,19.049c6.407,3.938,14.562,3.599,20.62-0.856c0.737-0.574,1.438-1.194,2.096-1.857l3.333-3.429  l6.715-6.811l13.478-13.572l13.524-13.478l6.811-6.714l3.477-3.43l4.048-3.762c5.955-5.276,12.768-9.496,20.145-12.478  c8.286-3.299,17.351-4.126,26.097-2.381c8.247,1.777,15.962,5.464,22.525,10.763l4.382,3.715l4,3.905l6.667,6.667l26.192,27.716  l52.861,55.052l2.666,2.81c4.763-4.762,8.001-10.524,17.287-10.334c2.233-3.979,4.765-7.784,7.572-11.382  c2.19-1.97,4.818-3.39,7.667-4.143c1.571-0.572,5.477,1.81,9.811,6c4.333,4.19,6.238,7.857,5.762,9.524  c-1.67,5.268-5.349,9.665-10.238,12.239c-0.715,0.476-1.571,0.81-2.334,1.238C632.663,223.825,625.662,226.159,619.376,229.445z   M227.205,322.023c0.043-2.756,0.362-5.499,0.952-8.191c-6.096-1.374-11.828-4.037-16.811-7.81  c-8.092-6.083-13.884-14.729-16.43-24.526c-1.501-6.048-1.695-12.348-0.571-18.478c0.535-6.285,2.472-12.371,5.667-17.811  c1.604-2.726,3.505-5.265,5.667-7.572l1.334-1.429l1.143-1.19l2.333-2.333l0.857-0.905c-3.27-2.88-4.879-7.207-4.286-11.524  c-3.556-1.817-6.949-3.937-10.144-6.334c-1.715-1.945-2.882-4.313-3.381-6.857c-0.429-1.429,2.048-5.238,6.238-9.524  c4.191-4.286,7.763-6.334,9.286-6.048c4.627,1.13,8.516,4.252,10.62,8.524c0.381,0.666,0.667,1.381,1,2.095  c4.559,2.675,7.854,7.066,9.144,12.191c9.252-8.252,21.593-12.151,33.907-10.715c11.894,1.427,22.624,7.83,29.526,17.62  c5.519,7.624,7.448,17.271,5.286,26.431c0,0.381,0,0.762-0.334,1.144c12.717-1.48,25.421,2.859,34.574,11.81  c7.523,7.248,11.269,17.569,10.144,27.955c-0.176,1.417-0.462,2.818-0.857,4.19c3.51-0.448,7.063-0.448,10.572,0  c11.894,1.427,22.624,7.83,29.526,17.62c5.414,7.488,7.372,16.932,5.381,25.955c0,0.714-0.429,1.428-0.667,2.143  c17.56-1.034,33.968,8.766,41.385,24.716c3.534,7.472,3.929,16.047,1.095,23.812c-2.292,6.595-7.604,11.693-14.287,13.715  c-3.37,1.066-7.006-0.548-8.477-3.762c-0.857-1.715-1.857-4.429-1.333-5.048c3.249-4.004,4.269-9.371,2.714-14.287  c-1.483-4.799-4.95-8.733-9.524-10.811c-4.925-2.005-10.433-2.038-15.382-0.095c-1.279,0.46-2.521,1.017-3.715,1.667  c-0.689,0.391-1.357,0.819-2,1.285l-2.762,2.096l-1.667,1.19c-0.725,1.23-1.537,2.408-2.429,3.524c-2.159,2.698-4.365,5.365-6.619,8  l-3.382,3.905l-0.904,1c-1.239,9.937,4.758,19.353,14.286,22.431c3.79,1.244,7.817,1.587,11.763,1  c2.052-0.356,4.051-0.965,5.953-1.81c2.229-1.111,4.296-2.521,6.144-4.191c4.547-4.443,11.688-4.811,16.668-0.857  c5.048,4.334,3.381,10.716-0.857,16.192l-1.429,1.81l-0.714,0.904l-1.096,1.19c-1.461,1.593-3.055,3.058-4.763,4.382  c-3.418,2.71-7.243,4.864-11.334,6.381c-8.326,3.097-17.402,3.562-26.002,1.334c-16.697-4.322-29.325-18.011-32.288-35.003  c-2.535,0.56-5.118,0.879-7.715,0.953c-20.911,0.752-39.548-13.097-44.86-33.336c0-0.477,0-0.952-0.285-1.477  c-21.866,5.744-44.583-5.716-52.956-26.716C227.495,336.043,226.499,328.999,227.205,322.023z M324.927,332.976  c-4.922,5.969-9.985,11.811-15.192,17.525l-3.571,3.904c-1.082,11.363,7.253,21.452,18.616,22.534  c0.477,0.046,0.954,0.074,1.433,0.087c4.531,0.189,9.018-0.953,12.906-3.286c0.453-0.246,0.884-0.532,1.285-0.857  c0.689-1.506,1.469-2.969,2.334-4.381c1.481-2.338,3.171-4.537,5.048-6.572c1.667-1.81,2.762-2.857,4.238-4.333l4.144-4.048  l2.095-2.001l1.048-1l1.477-1.333c0.857-0.762,1.762-1.429,2.667-2.144l0,0c-0.286-1.047-0.429-1.904,0-2.285  c3.411-4.729,3.941-10.953,1.381-16.191c-1.219-2.62-3.107-4.871-5.477-6.524c-2.299-1.679-4.986-2.744-7.811-3.096  c-2.847-0.389-5.744-0.128-8.477,0.762c-1.382,0.45-2.708,1.058-3.952,1.81c-1.621,0.965-3.123,2.116-4.477,3.429  c-3.048,2.667-6.191,5.191-9.524,7.715L324.927,332.976z M281.542,289.02c-1.381,1.19-2.81,2.334-4.19,3.524l-2.334,2.81  l-3.381,3.905c-0.619,0.715-1,1.19-1.857,2.048l-2.667,2.619c-4.039,3.536-8.687,6.311-13.715,8.191  c-4.297,7.188-3.979,16.228,0.81,23.097c4.892,6.924,13.552,10.107,21.764,8c2.414-0.61,4.714-1.607,6.81-2.952  c0.551-0.325,1.076-0.691,1.571-1.096c0.524-0.476,0.857-0.619,1.715-1.429l1.429-1.285c0.381-0.81,0.762-1.619,1.238-2.382  c1.604-2.725,3.504-5.265,5.667-7.571l1.333-1.429l1.334-1.238l2.333-2.334c3.175-3.175,6.35-6.238,9.524-9.19l4.763-4.524  l2.429-2.238l1.19-1.096l1.477-1.333l0.571-0.477c-0.282-0.915-0.282-1.895,0-2.81c3.738-5.453,3.738-12.644,0-18.097  c-3.689-5.446-10.151-8.325-16.668-7.429c-3.189,0.41-6.213,1.659-8.763,3.619l-0.952,0.762c-0.286,0-1,0.905-1.477,1.334l-3.238,3  L281.542,289.02z M237.301,288.116c2.492,0.069,4.98-0.235,7.382-0.905c6.794-6.794,13.731-13.43,20.811-19.906l5.43-4.762  l2.714-2.477l1.096-0.905c0-0.285,0-0.571,0-0.856c-0.286-1.048-0.429-1.905,0-2.286c3.492-4.704,4.097-10.953,1.571-16.239  c-2.532-5.218-7.531-8.802-13.286-9.524c-2.848-0.389-5.745-0.128-8.478,0.762c-1.382,0.45-2.708,1.058-3.952,1.81  c-1.621,0.964-3.124,2.115-4.477,3.429c-4.127,3.238-8.318,6.477-12.572,9.715c-2.096,1.619-4.207,3.207-6.334,4.763  c-2.143,1.523-4.763,3.238-5.857,4.048c-4.801,6.495-5.502,15.151-1.81,22.335C223.033,283.725,229.826,287.932,237.301,288.116  L237.301,288.116z"
     id="path3"
     style="fill:#1894d9;fill-opacity:1" /></svg>