<?xml version="1.0" encoding="UTF-8" standalone="no"?>
<!-- Generator: Adobe Illustrator 16.0.0, SVG Export Plug-In . SVG Version: 6.00 Build 0)  -->

<svg
   xmlns:dc="http://purl.org/dc/elements/1.1/"
   xmlns:cc="http://creativecommons.org/ns#"
   xmlns:rdf="http://www.w3.org/1999/02/22-rdf-syntax-ns#"
   xmlns:svg="http://www.w3.org/2000/svg"
   xmlns="http://www.w3.org/2000/svg"
   xmlns:sodipodi="http://sodipodi.sourceforge.net/DTD/sodipodi-0.dtd"
   xmlns:inkscape="http://www.inkscape.org/namespaces/inkscape"
   version="1.1"
   id="Layer_1"
   x="0px"
   y="0px"
   width="368.362px"
   height="419.126px"
   viewBox="236.764 28.55 368.362 419.126"
   enable-background="new 236.764 28.55 368.362 419.126"
   xml:space="preserve"
   inkscape:version="0.91 r13725"
   sodipodi:docname="pencil.svg"><metadata
     id="metadata15"><rdf:RDF><cc:Work
         rdf:about=""><dc:format>image/svg+xml</dc:format><dc:type
           rdf:resource="http://purl.org/dc/dcmitype/StillImage" /></cc:Work></rdf:RDF></metadata><defs
     id="defs13" /><sodipodi:namedview
     pagecolor="#ffffff"
     bordercolor="#666666"
     borderopacity="1"
     objecttolerance="10"
     gridtolerance="10"
     guidetolerance="10"
     inkscape:pageopacity="0"
     inkscape:pageshadow="2"
     inkscape:window-width="1920"
     inkscape:window-height="1017"
     id="namedview11"
     showgrid="false"
     inkscape:zoom="0.56307649"
     inkscape:cx="187.73292"
     inkscape:cy="209.563"
     inkscape:window-x="0"
     inkscape:window-y="0"
     inkscape:window-maximized="1"
     inkscape:current-layer="Layer_1" /><g
     transform="translate(0,-952.36218)"
     id="g3"
     style="fill:#1894d9;fill-opacity:1"><path
       d="M536.373,980.913c12.723,0.103,24.986,4.435,34.08,13.543l31.996,31.848c3.569,3.531,3.569,10.011,0,13.542   c-97.358,97.06-190.515,190.365-291.688,291.539c-6.498,6.539-15.08,9.895-23.662,10.269c-6.948,4.28-15.274,5.185-22.919,2.827   l-13.543,7.144c-3.58,1.868-8.34,1.124-11.179-1.748c-2.84-2.872-3.528-7.64-1.619-11.199l6.994-13.394   c-2.388-7.653-1.501-16.101,2.828-23.067c0.381-8.602,3.788-17.182,10.269-23.662l193.764-193.764l62.653-62.653   c1.783-1.803,4.31-2.847,6.846-2.827c2.437,0.058,4.835,1.094,6.548,2.827l32.74,32.74l21.728-21.876l-25.299-25.15   c-6.333-6.351-15.647-8.981-26.788-7.441c-11.14,1.54-23.578,7.506-33.782,17.71l-66.969,66.969   c-3.529,3.578-10.019,3.583-13.553,0.01c-3.534-3.574-3.458-10.062,0.157-13.552l66.82-66.82   c12.988-12.988,28.916-21.042,44.646-23.216c2.949-0.408,5.991-0.619,8.929-0.596L536.373,980.913z M521.045,1042.376   l-55.957,55.956l-193.615,193.764c-3.395,3.396-5.014,7.842-4.762,12.65c0.1,2.358-0.712,4.743-2.232,6.548   c-2.219,2.658-2.545,6.589-0.744,9.972c0.541,1.017,0.896,2.132,1.041,3.273c1.143,0.147,2.258,0.501,3.274,1.042   c3.458,1.827,7.316,1.45,9.971-0.744c1.842-1.556,4.291-2.372,6.697-2.232c4.74,0.248,9.275-1.209,12.649-4.613l193.615-193.764   l55.956-55.956L521.045,1042.376z"
       id="path5"
       style="fill:#1894d9;fill-opacity:1" /><path
       d="M440.79,1337.605c5.261-0.059,9.572,4.157,9.632,9.417c0.059,5.26-4.157,9.572-9.417,9.631   c-0.071,0.001-0.143,0.001-0.215,0H328.021c-5.26,0.06-9.572-4.156-9.631-9.416c-0.06-5.26,4.156-9.572,9.416-9.632   c0.072,0,0.144,0,0.215,0H440.79z"
       id="path7"
       style="fill:#1894d9;fill-opacity:1" /><path
       d="M474.839,1380.989c5.26-0.059,9.571,4.157,9.631,9.417s-4.156,9.572-9.417,9.631c-0.071,0.001-0.143,0.001-0.214,0H249.349   c-5.26,0.06-9.572-4.156-9.632-9.416c-0.059-5.26,4.157-9.572,9.417-9.632c0.071,0,0.143,0,0.215,0H474.839z"
       id="path9"
       style="fill:#1894d9;fill-opacity:1" /></g></svg>