<?xml version="1.0" encoding="utf-8"?>
<!-- Generator: Adobe Illustrator 16.0.0, SVG Export Plug-In . SVG Version: 6.00 Build 0)  -->
<!DOCTYPE svg PUBLIC "-//W3C//DTD SVG 1.1//EN" "http://www.w3.org/Graphics/SVG/1.1/DTD/svg11.dtd">
<svg version="1.1" id="Layer_1" xmlns="http://www.w3.org/2000/svg" xmlns:xlink="http://www.w3.org/1999/xlink" x="0px" y="0px"
	 width="459.08px" height="459.08px" viewBox="191.405 8.572 459.08 459.08" enable-background="new 191.405 8.572 459.08 459.08"
	 xml:space="preserve">
<path d="M559.526,340.501l16.668,9.524l0.477-0.952c23.335-32.384,35.717-70.958,35.717-111.438
	c0.476-51.908-19.049-100.482-55.242-136.676c-36.193-36.669-84.292-57.147-135.724-57.147
	c-106.198,0-192.871,86.673-192.871,192.871s86.196,192.395,192.395,192.395c18.572,0,36.193-2.381,52.861-7.619l0.952-0.477
	l-3.81-19.049l-1.429,0.477c-16.192,4.762-32.859,7.619-49.528,7.619c-95.244,0-172.869-77.624-172.869-172.869
	S324.748,64.291,419.992,64.291c95.245,0,172.87,77.624,172.87,172.869c0,36.669-11.43,71.91-33.336,102.389V340.501z"/>
<path d="M583.814,76.196C540.477,32.859,482.378,8.572,421.422,8.572c-21.431,0-41.908,2.857-61.434,8.572l-0.952,0.476
	l3.333,17.621l1.429-0.477c19.049-5.238,38.574-8.096,57.624-8.096c116.675,0,211.92,94.769,211.92,211.92
	s-95.245,211.443-211.92,211.443c-117.151-0.476-211.92-95.721-211.92-211.92c0-44.289,13.334-86.196,39.05-122.39l0.952-1.429
	l-15.715-9.048l-0.477,0.952c-27.621,38.574-41.907,84.292-41.907,132.391c0,126.199,102.864,229.063,229.063,229.063
	c126.676,0,230.017-102.864,230.017-229.063C650.485,177.155,627.15,119.532,583.814,76.196z"/>
<path d="M502.38,303.355l-39.526-37.146c0,0-20.479,22.858-29.526,19.524c0,0-28.573-17.144-50.48-63.337
	c-4.285-9.049,25.717-24.764,25.717-24.764l-27.621-46.671c0,0-43.813,21.907-40.955,47.623
	c2.857,25.239,23.335,94.769,101.912,133.343C469.044,345.262,502.38,303.355,502.38,303.355z"/>
</svg>
