<?xml version="1.0" encoding="utf-8"?>
<!-- Generator: Adobe Illustrator 16.0.0, SVG Export Plug-In . SVG Version: 6.00 Build 0)  -->
<!DOCTYPE svg PUBLIC "-//W3C//DTD SVG 1.1//EN" "http://www.w3.org/Graphics/SVG/1.1/DTD/svg11.dtd">
<svg version="1.1" id="Layer_1" xmlns="http://www.w3.org/2000/svg" xmlns:xlink="http://www.w3.org/1999/xlink" x="0px" y="0px"
	 width="402.41px" height="402.41px" viewBox="219.74 36.907 402.41 402.41" enable-background="new 219.74 36.907 402.41 402.41"
	 xml:space="preserve">
<path d="M522.809,36.907L219.74,339.976l99.341,99.341L622.15,136.248L522.809,36.907z M246.599,339.976l40.432-40.431l21.62,21.62
	l13.478-13.477l-21.621-21.621l23.002-23.002l21.62,21.621l13.525-13.239l-21.621-21.621l22.716-22.716l21.621,21.621l13.477-13.478
	l-21.525-21.858l22.907-22.906l21.62,21.62l13.478-13.477l-21.621-21.621l22.716-22.716l21.859,21.525l13.477-13.478l-21.62-21.62
	l23.002-23.002l21.62,21.621l13.478-13.478l-21.859-21.62l40.432-40.432l72.386,72.386l-276.21,276.211L246.599,339.976z"/>
</svg>
