<?xml version="1.0" encoding="UTF-8" standalone="no"?>
<!-- Generator: Adobe Illustrator 16.0.0, SVG Export Plug-In . SVG Version: 6.00 Build 0)  -->

<svg
   xmlns:dc="http://purl.org/dc/elements/1.1/"
   xmlns:cc="http://creativecommons.org/ns#"
   xmlns:rdf="http://www.w3.org/1999/02/22-rdf-syntax-ns#"
   xmlns:svg="http://www.w3.org/2000/svg"
   xmlns="http://www.w3.org/2000/svg"
   xmlns:sodipodi="http://sodipodi.sourceforge.net/DTD/sodipodi-0.dtd"
   xmlns:inkscape="http://www.inkscape.org/namespaces/inkscape"
   version="1.1"
   id="Layer_1"
   x="0px"
   y="0px"
   width="402.41px"
   height="402.41px"
   viewBox="219.74 36.907 402.41 402.41"
   enable-background="new 219.74 36.907 402.41 402.41"
   xml:space="preserve"
   inkscape:version="0.91 r13725"
   sodipodi:docname="ruler.svg"><metadata
     id="metadata9"><rdf:RDF><cc:Work
         rdf:about=""><dc:format>image/svg+xml</dc:format><dc:type
           rdf:resource="http://purl.org/dc/dcmitype/StillImage" /></cc:Work></rdf:RDF></metadata><defs
     id="defs7" /><sodipodi:namedview
     pagecolor="#ffffff"
     bordercolor="#666666"
     borderopacity="1"
     objecttolerance="10"
     gridtolerance="10"
     guidetolerance="10"
     inkscape:pageopacity="0"
     inkscape:pageshadow="2"
     inkscape:window-width="1920"
     inkscape:window-height="1017"
     id="namedview5"
     showgrid="false"
     inkscape:zoom="0.58646653"
     inkscape:cx="204.61526"
     inkscape:cy="201.205"
     inkscape:window-x="0"
     inkscape:window-y="0"
     inkscape:window-maximized="1"
     inkscape:current-layer="Layer_1" /><path
     d="M522.809,36.907L219.74,339.976l99.341,99.341L622.15,136.248L522.809,36.907z M246.599,339.976l40.432-40.431l21.62,21.62  l13.478-13.477l-21.621-21.621l23.002-23.002l21.62,21.621l13.525-13.239l-21.621-21.621l22.716-22.716l21.621,21.621l13.477-13.478  l-21.525-21.858l22.907-22.906l21.62,21.62l13.478-13.477l-21.621-21.621l22.716-22.716l21.859,21.525l13.477-13.478l-21.62-21.62  l23.002-23.002l21.62,21.621l13.478-13.478l-21.859-21.62l40.432-40.432l72.386,72.386l-276.21,276.211L246.599,339.976z"
     id="path3"
     style="fill:#1894d9;fill-opacity:1" /></svg>